PowerhouseFilarTrio-Regular.ufo
<glyph name="percent" format="2">
  <advance width="680"/>
  <unicode hex="0025"/>
  <outline>
    <contour>
      <point x="172" y="0" type="line"/>
      <point x="587" y="700" type="line"/>
      <point x="508" y="700" type="line"/>
      <point x="93" y="0" type="line"/>
    </contour>
    <contour>
      <point x="50" y="544" type="curve" smooth="yes"/>
      <point x="50" y="447"/>
      <point x="106" y="383"/>
      <point x="181" y="383" type="curve" smooth="yes"/>
      <point x="256" y="383"/>
      <point x="312" y="447"/>
      <point x="312" y="544" type="curve" smooth="yes"/>
      <point x="312" y="641"/>
      <point x="256" y="705"/>
      <point x="181" y="705" type="curve" smooth="yes"/>
      <point x="106" y="705"/>
      <point x="50" y="641"/>
    </contour>
    <contour>
      <point x="121" y="544" type="curve" smooth="yes"/>
      <point x="121" y="603"/>
      <point x="143" y="640"/>
      <point x="181" y="640" type="curve" smooth="yes"/>
      <point x="219" y="640"/>
      <point x="241" y="603"/>
      <point x="241" y="544" type="curve" smooth="yes"/>
      <point x="241" y="485"/>
      <point x="219" y="448"/>
      <point x="181" y="448" type="curve" smooth="yes"/>
      <point x="143" y="448"/>
      <point x="121" y="485"/>
    </contour>
    <contour>
      <point x="368" y="156" type="curve" smooth="yes"/>
      <point x="368" y="59"/>
      <point x="424" y="-5"/>
      <point x="499" y="-5" type="curve" smooth="yes"/>
      <point x="574" y="-5"/>
      <point x="630" y="59"/>
      <point x="630" y="156" type="curve" smooth="yes"/>
      <point x="630" y="253"/>
      <point x="574" y="317"/>
      <point x="499" y="317" type="curve" smooth="yes"/>
      <point x="424" y="317"/>
      <point x="368" y="253"/>
    </contour>
    <contour>
      <point x="439" y="156" type="curve" smooth="yes"/>
      <point x="439" y="215"/>
      <point x="461" y="252"/>
      <point x="499" y="252" type="curve" smooth="yes"/>
      <point x="537" y="252"/>
      <point x="559" y="215"/>
      <point x="559" y="156" type="curve" smooth="yes"/>
      <point x="559" y="97"/>
      <point x="537" y="60"/>
      <point x="499" y="60" type="curve" smooth="yes"/>
      <point x="461" y="60"/>
      <point x="439" y="97"/>
    </contour>
  </outline>
</glyph>
<glyph name="quotesingle" format="2">
  <advance width="350"/>
  <unicode hex="0027"/>
  <outline>
    <contour>
      <point x="121" y="700" type="line"/>
      <point x="142" y="412" type="line"/>
      <point x="209" y="412" type="line"/>
      <point x="230" y="700" type="line"/>
    </contour>
  </outline>
</glyph>
<glyph name="asterisk" format="2">
  <advance width="350"/>
  <unicode hex="002A"/>
  <outline>
    <contour>
      <point x="41" y="392" type="line"/>
      <point x="95" y="352" type="line"/>
      <point x="175" y="462" type="line"/>
      <point x="255" y="352" type="line"/>
      <point x="309" y="392" type="line"/>
      <point x="229" y="501" type="line"/>
      <point x="358" y="543" type="line"/>
      <point x="337" y="606" type="line"/>
      <point x="208" y="564" type="line"/>
      <point x="208" y="700" type="line"/>
      <point x="142" y="700" type="line"/>
      <point x="142" y="564" type="line"/>
      <point x="13" y="606" type="line"/>
      <point x="-8" y="543" type="line"/>
      <point x="121" y="501" type="line"/>
    </contour>
  </outline>
</glyph>
<glyph name="comma" format="2">
  <advance width="350"/>
  <unicode hex="002C"/>
  <outline>
    <contour>
      <point x="118" y="135" type="line"/>
      <point x="118" y="0" type="line"/>
      <point x="175" y="0" type="line"/>
      <point x="175" y="-10" type="line" smooth="yes"/>
      <point x="175" y="-54"/>
      <point x="147" y="-81"/>
      <point x="99" y="-81" type="curve"/>
      <point x="99" y="-131" type="line"/>
      <point x="205" y="-131"/>
      <point x="232" y="-55"/>
      <point x="232" y="-10" type="curve" smooth="yes"/>
      <point x="232" y="135" type="line"/>
    </contour>
  </outline>
</glyph>
<glyph name="four" format="2">
  <advance width="600"/>
  <unicode hex="0034"/>
  <outline>
    <contour>
      <point x="445" y="700" type="line"/>
      <point x="347" y="700" type="line"/>
      <point x="26" y="261" type="line"/>
      <point x="26" y="183" type="line"/>
      <point x="566" y="183" type="line"/>
      <point x="566" y="260" type="line"/>
      <point x="54" y="260" type="line"/>
      <point x="74" y="196" type="line"/>
      <point x="414" y="661" type="line"/>
      <point x="356" y="661" type="line"/>
      <point x="356" y="0" type="line"/>
      <point x="445" y="0" type="line"/>
    </contour>
  </outline>
</glyph>
<glyph name="five" format="2">
  <advance width="600"/>
  <unicode hex="0035"/>
  <outline>
    <contour>
      <point x="59" y="202" type="line"/>
      <point x="67" y="63"/>
      <point x="170" y="-12"/>
      <point x="301" y="-12" type="curve" smooth="yes"/>
      <point x="449" y="-12"/>
      <point x="551" y="81"/>
      <point x="551" y="231" type="curve" smooth="yes"/>
      <point x="551" y="383"/>
      <point x="449" y="466"/>
      <point x="328" y="466" type="curve" smooth="yes"/>
      <point x="228" y="466"/>
      <point x="163" y="414"/>
      <point x="146" y="358" type="curve"/>
      <point x="169" y="358" type="line"/>
      <point x="197" y="660" type="line"/>
      <point x="149" y="621" type="line"/>
      <point x="523" y="621" type="line"/>
      <point x="523" y="700" type="line"/>
      <point x="121" y="700" type="line"/>
      <point x="87" y="314" type="line"/>
      <point x="166" y="304" type="line"/>
      <point x="186" y="349"/>
      <point x="239" y="395"/>
      <point x="313" y="395" type="curve" smooth="yes"/>
      <point x="393" y="395"/>
      <point x="459" y="341"/>
      <point x="459" y="231" type="curve" smooth="yes"/>
      <point x="459" y="120"/>
      <point x="399" y="61"/>
      <point x="302" y="61" type="curve" smooth="yes"/>
      <point x="210" y="61"/>
      <point x="157" y="118"/>
      <point x="154" y="190" type="curve"/>
    </contour>
  </outline>
</glyph>
<glyph name="seven" format="2">
  <advance width="600"/>
  <unicode hex="0037"/>
  <outline>
    <contour>
      <point x="63" y="700" type="line"/>
      <point x="63" y="470" type="line"/>
      <point x="154" y="470" type="line"/>
      <point x="154" y="652" type="line"/>
      <point x="124" y="622" type="line"/>
      <point x="543" y="622" type="line"/>
      <point x="515" y="668" type="line"/>
      <point x="375" y="462"/>
      <point x="196" y="237"/>
      <point x="187" y="0" type="curve"/>
      <point x="284" y="0" type="line"/>
      <point x="293" y="233"/>
      <point x="455" y="438"/>
      <point x="586" y="632" type="curve"/>
      <point x="586" y="700" type="line"/>
    </contour>
  </outline>
</glyph>
<glyph name="nine" format="2">
  <advance width="600"/>
  <unicode hex="0039"/>
  <outline>
    <contour>
      <point x="293" y="712" type="curve" smooth="yes"/>
      <point x="143" y="712"/>
      <point x="54" y="603"/>
      <point x="54" y="472" type="curve" smooth="yes"/>
      <point x="54" y="321"/>
      <point x="153" y="233"/>
      <point x="274" y="233" type="curve" smooth="yes"/>
      <point x="370" y="233"/>
      <point x="458" y="291"/>
      <point x="474" y="396" type="curve"/>
      <point x="449" y="396" type="line"/>
      <point x="449" y="332" type="line" smooth="yes"/>
      <point x="449" y="172"/>
      <point x="397" y="63"/>
      <point x="276" y="63" type="curve" smooth="yes"/>
      <point x="201" y="63"/>
      <point x="155" y="103"/>
      <point x="148" y="164" type="curve"/>
      <point x="53" y="182" type="line"/>
      <point x="59" y="77"/>
      <point x="133" y="-12"/>
      <point x="274" y="-12" type="curve" smooth="yes"/>
      <point x="450" y="-12"/>
      <point x="541" y="117"/>
      <point x="541" y="363" type="curve" smooth="yes"/>
      <point x="541" y="478"/>
      <point x="526" y="552"/>
      <point x="488" y="611" type="curve" smooth="yes"/>
      <point x="445" y="679"/>
      <point x="370" y="712"/>
    </contour>
    <contour>
      <point x="293" y="636" type="curve" smooth="yes"/>
      <point x="379" y="636"/>
      <point x="444" y="569"/>
      <point x="444" y="472" type="curve" smooth="yes"/>
      <point x="444" y="375"/>
      <point x="379" y="308"/>
      <point x="293" y="308" type="curve" smooth="yes"/>
      <point x="206" y="308"/>
      <point x="143" y="376"/>
      <point x="143" y="474" type="curve" smooth="yes"/>
      <point x="143" y="572"/>
      <point x="208" y="636"/>
    </contour>
  </outline>
</glyph>
<glyph name="at" format="2">
  <advance width="680"/>
  <unicode hex="0040"/>
  <guideline x="413" y="451" angle="84.5226" identifier="Ej0koabtCm"/>
  <outline>
    <contour>
      <point x="34" y="224" type="curve" smooth="yes"/>
      <point x="34" y="2"/>
      <point x="161" y="-130"/>
      <point x="356" y="-130" type="curve" smooth="yes"/>
      <point x="422" y="-130"/>
      <point x="482" y="-111"/>
      <point x="533" y="-76" type="curve"/>
      <point x="501" y="-22" type="line"/>
      <point x="455" y="-53"/>
      <point x="410" y="-65"/>
      <point x="355" y="-65" type="curve" smooth="yes"/>
      <point x="203" y="-65"/>
      <point x="105" y="43"/>
      <point x="105" y="224" type="curve" smooth="yes"/>
      <point x="105" y="439"/>
      <point x="211" y="572"/>
      <point x="364" y="572" type="curve" smooth="yes"/>
      <point x="475" y="572"/>
      <point x="575" y="499"/>
      <point x="575" y="306" type="curve" smooth="yes"/>
      <point x="575" y="188"/>
      <point x="545" y="124"/>
      <point x="495" y="124" type="curve" smooth="yes"/>
      <point x="470" y="124"/>
      <point x="460" y="142"/>
      <point x="464" y="179" type="curve" smooth="yes"/>
      <point x="493" y="451" type="line"/>
      <point x="421" y="451" type="line"/>
      <point x="417" y="405" type="line"/>
      <point x="403" y="440"/>
      <point x="370" y="457"/>
      <point x="332" y="457" type="curve" smooth="yes"/>
      <point x="266" y="457"/>
      <point x="196" y="399"/>
      <point x="182" y="271" type="curve" smooth="yes"/>
      <point x="166" y="123"/>
      <point x="233" y="52"/>
      <point x="306" y="52" type="curve" smooth="yes"/>
      <point x="346" y="52"/>
      <point x="379" y="70"/>
      <point x="400" y="108" type="curve"/>
      <point x="410" y="76"/>
      <point x="441" y="52"/>
      <point x="483" y="52" type="curve" smooth="yes"/>
      <point x="584" y="52"/>
      <point x="646" y="156"/>
      <point x="646" y="306" type="curve" smooth="yes"/>
      <point x="646" y="539"/>
      <point x="511" y="636"/>
      <point x="364" y="636" type="curve" smooth="yes"/>
      <point x="174" y="636"/>
      <point x="34" y="484"/>
    </contour>
    <contour>
      <point x="402" y="250" type="curve" smooth="yes"/>
      <point x="392" y="157"/>
      <point x="365" y="118"/>
      <point x="320" y="118" type="curve" smooth="yes"/>
      <point x="272" y="118"/>
      <point x="249" y="174"/>
      <point x="259" y="260" type="curve" smooth="yes"/>
      <point x="269" y="352"/>
      <point x="304" y="391"/>
      <point x="343" y="391" type="curve" smooth="yes"/>
      <point x="393" y="391"/>
      <point x="411" y="334"/>
    </contour>
  </outline>
</glyph>
<glyph name="A" format="2">
  <advance width="680"/>
  <unicode hex="0041"/>
  <outline>
    <contour>
      <point x="295" y="700" type="line"/>
      <point x="29" y="0" type="line"/>
      <point x="123" y="0" type="line"/>
      <point x="361" y="634" type="line"/>
      <point x="322" y="634" type="line"/>
      <point x="558" y="0" type="line"/>
      <point x="651" y="0" type="line"/>
      <point x="387" y="700" type="line"/>
    </contour>
    <contour>
      <point x="172" y="294" type="line"/>
      <point x="172" y="212" type="line"/>
      <point x="514" y="212" type="line"/>
      <point x="514" y="294" type="line"/>
    </contour>
  </outline>
</glyph>
<glyph name="C" format="2">
  <advance width="680"/>
  <unicode hex="0043"/>
  <outline>
    <contour>
      <point x="52" y="350" type="curve" smooth="yes"/>
      <point x="52" y="136"/>
      <point x="181" y="-12"/>
      <point x="359" y="-12" type="curve" smooth="yes"/>
      <point x="498" y="-12"/>
      <point x="603" y="81"/>
      <point x="635" y="211" type="curve"/>
      <point x="555" y="236" type="line"/>
      <point x="530" y="143"/>
      <point x="461" y="69"/>
      <point x="359" y="69" type="curve" smooth="yes"/>
      <point x="229" y="69"/>
      <point x="145" y="181"/>
      <point x="145" y="350" type="curve" smooth="yes"/>
      <point x="145" y="519"/>
      <point x="229" y="631"/>
      <point x="359" y="631" type="curve" smooth="yes"/>
      <point x="461" y="631"/>
      <point x="529" y="560"/>
      <point x="554" y="467" type="curve"/>
      <point x="634" y="491" type="line"/>
      <point x="600" y="620"/>
      <point x="496" y="712"/>
      <point x="359" y="712" type="curve" smooth="yes"/>
      <point x="181" y="712"/>
      <point x="52" y="564"/>
    </contour>
  </outline>
</glyph>
<glyph name="D" format="2">
  <advance width="680"/>
  <unicode hex="0044"/>
  <outline>
    <contour>
      <point x="121" y="82" type="line"/>
      <point x="121" y="0" type="line"/>
      <point x="335" y="0" type="line" smooth="yes"/>
      <point x="528" y="0"/>
      <point x="638" y="149"/>
      <point x="638" y="350" type="curve" smooth="yes"/>
      <point x="638" y="551"/>
      <point x="528" y="700"/>
      <point x="335" y="700" type="curve" smooth="yes"/>
      <point x="120" y="700" type="line"/>
      <point x="120" y="618" type="line"/>
      <point x="328" y="618" type="line" smooth="yes"/>
      <point x="472" y="618"/>
      <point x="545" y="516"/>
      <point x="545" y="350" type="curve" smooth="yes"/>
      <point x="545" y="184"/>
      <point x="472" y="82"/>
      <point x="328" y="82" type="curve" smooth="yes"/>
    </contour>
    <contour>
      <point x="87" y="0" type="line"/>
      <point x="178" y="0" type="line"/>
      <point x="178" y="700" type="line"/>
      <point x="87" y="700" type="line"/>
    </contour>
  </outline>
</glyph>
<glyph name="G" format="2">
  <advance width="680"/>
  <unicode hex="0047"/>
  <outline>
    <contour>
      <point x="340" y="712" type="curve" smooth="yes"/>
      <point x="170" y="712"/>
      <point x="42" y="564"/>
      <point x="42" y="350" type="curve" smooth="yes"/>
      <point x="42" y="136"/>
      <point x="160" y="-12"/>
      <point x="328" y="-12" type="curve" smooth="yes"/>
      <point x="439" y="-12"/>
      <point x="518" y="50"/>
      <point x="553" y="144" type="curve"/>
      <point x="530" y="144" type="line"/>
      <point x="530" y="0" type="line"/>
      <point x="604" y="0" type="line"/>
      <point x="604" y="367" type="line"/>
      <point x="373" y="367" type="line"/>
      <point x="373" y="294" type="line"/>
      <point x="574" y="294" type="line"/>
      <point x="537" y="311" type="line"/>
      <point x="537" y="290" type="line" smooth="yes"/>
      <point x="537" y="159"/>
      <point x="452" y="67"/>
      <point x="339" y="67" type="curve" smooth="yes"/>
      <point x="215" y="67"/>
      <point x="135" y="181"/>
      <point x="135" y="350" type="curve" smooth="yes"/>
      <point x="135" y="519"/>
      <point x="218" y="631"/>
      <point x="340" y="631" type="curve" smooth="yes"/>
      <point x="441" y="631"/>
      <point x="494" y="558"/>
      <point x="515" y="479" type="curve"/>
      <point x="596" y="501" type="line"/>
      <point x="566" y="620"/>
      <point x="476" y="712"/>
    </contour>
  </outline>
</glyph>
<glyph name="H" format="2">
  <advance width="680"/>
  <unicode hex="0048"/>
  <outline>
    <contour>
      <point x="134" y="320" type="line"/>
      <point x="547" y="320" type="line"/>
      <point x="547" y="402" type="line"/>
      <point x="134" y="402" type="line"/>
    </contour>
    <contour>
      <point x="502" y="700" type="line"/>
      <point x="502" y="0" type="line"/>
      <point x="593" y="0" type="line"/>
      <point x="593" y="700" type="line"/>
    </contour>
    <contour>
      <point x="87" y="700" type="line"/>
      <point x="87" y="0" type="line"/>
      <point x="178" y="0" type="line"/>
      <point x="178" y="700" type="line"/>
    </contour>
  </outline>
</glyph>
<glyph name="J" format="2">
  <advance width="600"/>
  <unicode hex="004A"/>
  <outline>
    <contour>
      <point x="298" y="69" type="curve" smooth="yes"/>
      <point x="216" y="69"/>
      <point x="153" y="113"/>
      <point x="151" y="227" type="curve"/>
      <point x="55" y="237" type="line"/>
      <point x="56" y="79"/>
      <point x="153" y="-12"/>
      <point x="299" y="-12" type="curve" smooth="yes"/>
      <point x="446" y="-12"/>
      <point x="528" y="79"/>
      <point x="528" y="222" type="curve" smooth="yes"/>
      <point x="528" y="700" type="line"/>
      <point x="438" y="700" type="line"/>
      <point x="438" y="226" type="line" smooth="yes"/>
      <point x="438" y="128"/>
      <point x="395" y="69"/>
    </contour>
  </outline>
</glyph>
<glyph name="M" format="2">
  <advance width="680"/>
  <unicode hex="004D"/>
  <outline>
    <contour>
      <point x="144" y="622" type="line"/>
      <point x="319" y="230" type="line"/>
      <point x="361" y="230" type="line"/>
      <point x="534" y="621" type="line"/>
      <point x="522" y="621" type="line"/>
      <point x="522" y="0" type="line"/>
      <point x="608" y="0" type="line"/>
      <point x="608" y="700" type="line"/>
      <point x="487" y="700" type="line"/>
      <point x="332" y="345" type="line"/>
      <point x="351" y="345" type="line"/>
      <point x="195" y="700" type="line"/>
      <point x="72" y="700" type="line"/>
      <point x="72" y="0" type="line"/>
      <point x="157" y="0" type="line"/>
      <point x="157" y="622" type="line"/>
    </contour>
  </outline>
</glyph>
<glyph name="N" format="2">
  <advance width="680"/>
  <unicode hex="004E"/>
  <outline>
    <contour>
      <point x="559" y="40" type="line"/>
      <point x="216" y="700" type="line"/>
      <point x="87" y="700" type="line"/>
      <point x="87" y="0" type="line"/>
      <point x="175" y="0" type="line"/>
      <point x="175" y="657" type="line"/>
      <point x="147" y="657" type="line"/>
      <point x="488" y="0" type="line"/>
      <point x="593" y="0" type="line"/>
      <point x="593" y="700" type="line"/>
      <point x="505" y="700" type="line"/>
      <point x="505" y="40" type="line"/>
    </contour>
  </outline>
</glyph>
<glyph name="Q" format="2">
  <advance width="680"/>
  <unicode hex="0051"/>
  <outline>
    <contour>
      <point x="302" y="-40" type="line" smooth="yes"/>
      <point x="302" y="-133"/>
      <point x="371" y="-181"/>
      <point x="467" y="-181" type="curve" smooth="yes"/>
      <point x="483" y="-181"/>
      <point x="519" y="-180"/>
      <point x="553" y="-175" type="curve"/>
      <point x="553" y="-99" type="line"/>
      <point x="521" y="-103"/>
      <point x="502" y="-103"/>
      <point x="480" y="-103" type="curve" smooth="yes"/>
      <point x="416" y="-103"/>
      <point x="397" y="-75"/>
      <point x="397" y="-25" type="curve" smooth="yes"/>
      <point x="397" y="27" type="line"/>
      <point x="302" y="27" type="line"/>
    </contour>
    <contour>
      <point x="545" y="350" type="curve" smooth="yes"/>
      <point x="545" y="181"/>
      <point x="462" y="69"/>
      <point x="340" y="69" type="curve" smooth="yes"/>
      <point x="218" y="69"/>
      <point x="135" y="181"/>
      <point x="135" y="350" type="curve" smooth="yes"/>
      <point x="135" y="519"/>
      <point x="218" y="631"/>
      <point x="340" y="631" type="curve" smooth="yes"/>
      <point x="462" y="631"/>
      <point x="545" y="519"/>
    </contour>
    <contour>
      <point x="42" y="350" type="curve" smooth="yes"/>
      <point x="42" y="136"/>
      <point x="170" y="-12"/>
      <point x="340" y="-12" type="curve" smooth="yes"/>
      <point x="510" y="-12"/>
      <point x="638" y="136"/>
      <point x="638" y="350" type="curve" smooth="yes"/>
      <point x="638" y="564"/>
      <point x="510" y="712"/>
      <point x="340" y="712" type="curve" smooth="yes"/>
      <point x="170" y="712"/>
      <point x="42" y="564"/>
    </contour>
  </outline>
</glyph>
<glyph name="V" format="2">
  <advance width="680"/>
  <unicode hex="0056"/>
  <outline>
    <contour>
      <point x="125" y="700" type="line"/>
      <point x="29" y="700" type="line"/>
      <point x="294" y="0" type="line"/>
      <point x="392" y="0" type="line"/>
      <point x="652" y="700" type="line"/>
      <point x="559" y="700" type="line"/>
      <point x="327" y="60" type="line"/>
      <point x="362" y="60" type="line"/>
    </contour>
  </outline>
</glyph>
<glyph name="W" format="2">
  <advance width="680"/>
  <unicode hex="0057"/>
  <outline>
    <contour>
      <point x="544" y="0" type="line"/>
      <point x="653" y="700" type="line"/>
      <point x="566" y="700" type="line"/>
      <point x="475" y="36" type="line"/>
      <point x="509" y="36" type="line"/>
      <point x="385" y="520" type="line"/>
      <point x="296" y="520" type="line"/>
      <point x="174" y="36" type="line"/>
      <point x="209" y="36" type="line"/>
      <point x="114" y="700" type="line"/>
      <point x="27" y="700" type="line"/>
      <point x="137" y="0" type="line"/>
      <point x="238" y="0" type="line"/>
      <point x="357" y="467" type="line"/>
      <point x="326" y="467" type="line"/>
      <point x="446" y="0" type="line"/>
    </contour>
  </outline>
</glyph>
<glyph name="X" format="2">
  <advance width="680"/>
  <unicode hex="0058"/>
  <outline>
    <contour>
      <point x="45" y="700" type="line"/>
      <point x="297" y="344" type="line"/>
      <point x="310" y="329" type="line"/>
      <point x="543" y="0" type="line"/>
      <point x="652" y="0" type="line"/>
      <point x="371" y="394" type="line"/>
      <point x="358" y="402" type="line"/>
      <point x="154" y="700" type="line"/>
    </contour>
    <contour>
      <point x="635" y="700" type="line"/>
      <point x="531" y="700" type="line"/>
      <point x="322" y="398" type="line"/>
      <point x="300" y="387" type="line"/>
      <point x="28" y="0" type="line"/>
      <point x="135" y="0" type="line"/>
      <point x="366" y="333" type="line"/>
      <point x="388" y="346" type="line"/>
    </contour>
  </outline>
</glyph>
<glyph name="Z" format="2">
  <advance width="600"/>
  <unicode hex="005A"/>
  <outline>
    <contour>
      <point x="48" y="0" type="line"/>
      <point x="554" y="0" type="line"/>
      <point x="554" y="82" type="line"/>
      <point x="126" y="82" type="line"/>
      <point x="123" y="26" type="line"/>
      <point x="548" y="639" type="line"/>
      <point x="548" y="700" type="line"/>
      <point x="46" y="700" type="line"/>
      <point x="46" y="618" type="line"/>
      <point x="475" y="618" type="line"/>
      <point x="461" y="660" type="line"/>
      <point x="48" y="62" type="line"/>
    </contour>
  </outline>
</glyph>
<glyph name="backslash" format="2">
  <advance width="600"/>
  <unicode hex="005C"/>
  <outline>
    <contour>
      <point x="144" y="745" type="line"/>
      <point x="572" y="-113" type="line"/>
      <point x="481" y="-113" type="line"/>
      <point x="53" y="745" type="line"/>
    </contour>
  </outline>
</glyph>
<glyph name="k" format="2">
  <advance width="600"/>
  <unicode hex="006B"/>
  <outline>
    <contour>
      <point x="111" y="0" type="line"/>
      <point x="199" y="0" type="line"/>
      <point x="199" y="700" type="line"/>
      <point x="111" y="700" type="line"/>
    </contour>
    <contour>
      <point x="156" y="236" type="line"/>
      <point x="156" y="140" type="line"/>
      <point x="280" y="255" type="line"/>
      <point x="313" y="275" type="line"/>
      <point x="548" y="490" type="line"/>
      <point x="437" y="490" type="line"/>
    </contour>
    <contour>
      <point x="239" y="266" type="line"/>
      <point x="460" y="0" type="line"/>
      <point x="566" y="0" type="line"/>
      <point x="305" y="316" type="line"/>
    </contour>
  </outline>
</glyph>
<glyph name="m" format="2">
  <advance width="680"/>
  <unicode hex="006D"/>
  <outline>
    <contour>
      <point x="336" y="357" type="line"/>
      <point x="383" y="357" type="line"/>
      <point x="383" y="399"/>
      <point x="415" y="431"/>
      <point x="459" y="431" type="curve" smooth="yes"/>
      <point x="502" y="431"/>
      <point x="526" y="399"/>
      <point x="526" y="366" type="curve" smooth="yes"/>
      <point x="526" y="0" type="line"/>
      <point x="611" y="0" type="line"/>
      <point x="611" y="371" type="line" smooth="yes"/>
      <point x="611" y="441"/>
      <point x="567" y="501"/>
      <point x="489" y="501" type="curve" smooth="yes"/>
      <point x="425" y="501"/>
      <point x="365" y="461"/>
      <point x="353" y="394" type="curve"/>
      <point x="336" y="394" type="line"/>
    </contour>
    <contour>
      <point x="70" y="490" type="line"/>
      <point x="70" y="0" type="line"/>
      <point x="155" y="0" type="line"/>
      <point x="155" y="357" type="line" smooth="yes"/>
      <point x="155" y="399"/>
      <point x="187" y="431"/>
      <point x="231" y="431" type="curve" smooth="yes"/>
      <point x="274" y="431"/>
      <point x="298" y="399"/>
      <point x="298" y="366" type="curve"/>
      <point x="298" y="0" type="line"/>
      <point x="383" y="0" type="line"/>
      <point x="383" y="371" type="line" smooth="yes"/>
      <point x="383" y="441"/>
      <point x="339" y="501"/>
      <point x="263" y="501" type="curve" smooth="yes"/>
      <point x="200" y="501"/>
      <point x="145" y="461"/>
      <point x="133" y="394" type="curve"/>
      <point x="155" y="394" type="line"/>
      <point x="155" y="490" type="line"/>
    </contour>
  </outline>
</glyph>
<glyph name="s" format="2">
  <advance width="600"/>
  <unicode hex="0073"/>
  <outline>
    <contour>
      <point x="77" y="159" type="line"/>
      <point x="83" y="59"/>
      <point x="168" y="-12"/>
      <point x="309" y="-12" type="curve" smooth="yes"/>
      <point x="441" y="-12"/>
      <point x="518" y="48"/>
      <point x="518" y="146" type="curve" smooth="yes"/>
      <point x="518" y="211"/>
      <point x="480" y="263"/>
      <point x="373" y="278" type="curve" smooth="yes"/>
      <point x="280" y="291" type="line" smooth="yes"/>
      <point x="204" y="302"/>
      <point x="175" y="315"/>
      <point x="175" y="359" type="curve" smooth="yes"/>
      <point x="175" y="401"/>
      <point x="220" y="435"/>
      <point x="297" y="435" type="curve" smooth="yes"/>
      <point x="375" y="435"/>
      <point x="420" y="400"/>
      <point x="423" y="353" type="curve"/>
      <point x="509" y="347" type="line"/>
      <point x="507" y="430"/>
      <point x="431" y="502"/>
      <point x="298" y="502" type="curve" smooth="yes"/>
      <point x="178" y="502"/>
      <point x="92" y="447"/>
      <point x="92" y="349" type="curve" smooth="yes"/>
      <point x="92" y="283"/>
      <point x="127" y="231"/>
      <point x="244" y="216" type="curve" smooth="yes"/>
      <point x="337" y="204" type="line" smooth="yes"/>
      <point x="410" y="195"/>
      <point x="432" y="168"/>
      <point x="432" y="133" type="curve" smooth="yes"/>
      <point x="432" y="84"/>
      <point x="392" y="55"/>
      <point x="310" y="55" type="curve" smooth="yes"/>
      <point x="218" y="55"/>
      <point x="175" y="92"/>
      <point x="170" y="150" type="curve"/>
    </contour>
  </outline>
</glyph>
<glyph name="u" format="2">
  <advance width="600"/>
  <unicode hex="0075"/>
  <outline>
    <contour>
      <point x="507" y="0" type="line"/>
      <point x="507" y="490" type="line"/>
      <point x="419" y="490" type="line"/>
      <point x="419" y="192" type="line" smooth="yes"/>
      <point x="419" y="113"/>
      <point x="367" y="59"/>
      <point x="291" y="59" type="curve" smooth="yes"/>
      <point x="217" y="59"/>
      <point x="178" y="113"/>
      <point x="178" y="183" type="curve" smooth="yes"/>
      <point x="178" y="490" type="line"/>
      <point x="90" y="490" type="line"/>
      <point x="90" y="168" type="line" smooth="yes"/>
      <point x="90" y="69"/>
      <point x="156" y="-12"/>
      <point x="261" y="-12" type="curve" smooth="yes"/>
      <point x="343" y="-12"/>
      <point x="410" y="35"/>
      <point x="443" y="104" type="curve"/>
      <point x="419" y="104" type="line"/>
      <point x="419" y="0" type="line"/>
    </contour>
  </outline>
</glyph>
<glyph name="w" format="2">
  <advance width="600"/>
  <unicode hex="0077"/>
  <outline>
    <contour>
      <point x="135" y="0" type="line"/>
      <point x="219" y="0" type="line"/>
      <point x="305" y="296" type="line"/>
      <point x="292" y="296" type="line"/>
      <point x="379" y="0" type="line"/>
      <point x="465" y="0" type="line"/>
      <point x="576" y="490" type="line"/>
      <point x="489" y="490" type="line"/>
      <point x="398" y="50" type="line"/>
      <point x="432" y="50" type="line"/>
      <point x="338" y="370" type="line"/>
      <point x="261" y="370" type="line"/>
      <point x="166" y="50" type="line"/>
      <point x="201" y="50" type="line"/>
      <point x="109" y="490" type="line"/>
      <point x="24" y="490" type="line"/>
    </contour>
  </outline>
</glyph>
<glyph name="bar" format="2">
  <advance width="350"/>
  <unicode hex="007C"/>
  <outline>
    <contour>
      <point x="134" y="745" type="line"/>
      <point x="134" y="-113" type="line"/>
      <point x="217" y="-113" type="line"/>
      <point x="217" y="745" type="line"/>
    </contour>
  </outline>
</glyph>
<glyph name="section" format="2">
  <advance width="600"/>
  <unicode hex="00A7"/>
  <outline>
    <contour>
      <point x="377" y="165" type="line"/>
      <point x="424" y="206"/>
      <point x="433" y="240"/>
      <point x="433" y="268" type="curve" smooth="yes"/>
      <point x="433" y="313"/>
      <point x="409" y="341"/>
      <point x="341" y="363" type="curve" smooth="yes"/>
      <point x="254" y="391" type="line" smooth="yes"/>
      <point x="142" y="427"/>
      <point x="106" y="470"/>
      <point x="106" y="542" type="curve" smooth="yes"/>
      <point x="106" y="650"/>
      <point x="186" y="712"/>
      <point x="299" y="712" type="curve" smooth="yes"/>
      <point x="421" y="712"/>
      <point x="491" y="644"/>
      <point x="493" y="552" type="curve"/>
      <point x="407" y="558" type="line"/>
      <point x="404" y="614"/>
      <point x="365" y="645"/>
      <point x="298" y="645" type="curve" smooth="yes"/>
      <point x="228" y="645"/>
      <point x="189" y="605"/>
      <point x="189" y="551" type="curve" smooth="yes"/>
      <point x="189" y="503"/>
      <point x="219" y="487"/>
      <point x="290" y="464" type="curve" smooth="yes"/>
      <point x="377" y="436" type="line" smooth="yes"/>
      <point x="479" y="403"/>
      <point x="519" y="350"/>
      <point x="519" y="285" type="curve" smooth="yes"/>
      <point x="519" y="239"/>
      <point x="500" y="180"/>
      <point x="437" y="130" type="curve"/>
    </contour>
    <contour>
      <point x="82" y="50" type="curve"/>
      <point x="175" y="41" type="line"/>
      <point x="180" y="-27"/>
      <point x="221" y="-59"/>
      <point x="303" y="-59" type="curve" smooth="yes"/>
      <point x="379" y="-59"/>
      <point x="418" y="-24"/>
      <point x="418" y="32" type="curve" smooth="yes"/>
      <point x="418" y="77"/>
      <point x="388" y="105"/>
      <point x="320" y="127" type="curve" smooth="yes"/>
      <point x="233" y="155" type="line" smooth="yes"/>
      <point x="121" y="191"/>
      <point x="85" y="240"/>
      <point x="85" y="306" type="curve" smooth="yes"/>
      <point x="85" y="364"/>
      <point x="110" y="418"/>
      <point x="183" y="466" type="curve"/>
      <point x="237" y="427" type="line"/>
      <point x="180" y="388"/>
      <point x="168" y="353"/>
      <point x="168" y="320" type="curve" smooth="yes"/>
      <point x="168" y="268"/>
      <point x="198" y="251"/>
      <point x="269" y="228" type="curve" smooth="yes"/>
      <point x="356" y="200" type="line" smooth="yes"/>
      <point x="458" y="167"/>
      <point x="504" y="120"/>
      <point x="504" y="47" type="curve" smooth="yes"/>
      <point x="504" y="-60"/>
      <point x="428" y="-126"/>
      <point x="302" y="-126" type="curve" smooth="yes"/>
      <point x="171" y="-126"/>
      <point x="88" y="-60"/>
    </contour>
  </outline>
</glyph>
<glyph name="copyright" format="2">
  <advance width="680"/>
  <unicode hex="00A9"/>
  <outline>
    <contour>
      <point x="479" y="477" type="line"/>
      <point x="462" y="533"/>
      <point x="412" y="574"/>
      <point x="343" y="574" type="curve" smooth="yes"/>
      <point x="255" y="574"/>
      <point x="192" y="509"/>
      <point x="192" y="417" type="curve" smooth="yes"/>
      <point x="192" y="324"/>
      <point x="255" y="260"/>
      <point x="343" y="260" type="curve" smooth="yes"/>
      <point x="413" y="260"/>
      <point x="462" y="300"/>
      <point x="479" y="358" type="curve"/>
      <point x="420" y="377" type="line"/>
      <point x="410" y="339"/>
      <point x="381" y="315"/>
      <point x="343" y="315" type="curve" smooth="yes"/>
      <point x="292" y="315"/>
      <point x="256" y="354"/>
      <point x="256" y="417" type="curve" smooth="yes"/>
      <point x="256" y="479"/>
      <point x="292" y="518"/>
      <point x="343" y="518" type="curve" smooth="yes"/>
      <point x="381" y="518"/>
      <point x="410" y="495"/>
      <point x="420" y="457" type="curve"/>
    </contour>
    <contour>
      <point x="49" y="416" type="curve" smooth="yes"/>
      <point x="49" y="253"/>
      <point x="175" y="124"/>
      <point x="340" y="124" type="curve" smooth="yes"/>
      <point x="505" y="124"/>
      <point x="631" y="253"/>
      <point x="631" y="416" type="curve" smooth="yes"/>
      <point x="631" y="579"/>
      <point x="505" y="709"/>
      <point x="340" y="709" type="curve" smooth="yes"/>
      <point x="175" y="709"/>
      <point x="49" y="579"/>
    </contour>
    <contour>
      <point x="580" y="416" type="curve" smooth="yes"/>
      <point x="580" y="275"/>
      <point x="482" y="171"/>
      <point x="340" y="171" type="curve" smooth="yes"/>
      <point x="198" y="171"/>
      <point x="100" y="275"/>
      <point x="100" y="416" type="curve" smooth="yes"/>
      <point x="100" y="557"/>
      <point x="198" y="661"/>
      <point x="340" y="661" type="curve" smooth="yes"/>
      <point x="482" y="661"/>
      <point x="580" y="557"/>
    </contour>
  </outline>
</glyph>
<glyph name="ordfeminine" format="2">
  <advance width="350"/>
  <unicode hex="00AA"/>
  <outline>
    <contour>
      <point x="23" y="417" type="curve" smooth="yes"/>
      <point x="23" y="347"/>
      <point x="73" y="301"/>
      <point x="151" y="301" type="curve" smooth="yes"/>
      <point x="188" y="301"/>
      <point x="226" y="319"/>
      <point x="246" y="351" type="curve"/>
      <point x="258" y="315"/>
      <point x="287" y="305"/>
      <point x="322" y="305" type="curve" smooth="yes"/>
      <point x="332" y="305"/>
      <point x="343" y="306"/>
      <point x="349" y="307" type="curve"/>
      <point x="349" y="370" type="line"/>
      <point x="341" y="370" type="line" smooth="yes"/>
      <point x="323" y="370"/>
      <point x="314" y="381"/>
      <point x="314" y="398" type="curve" smooth="yes"/>
      <point x="314" y="586" type="line" smooth="yes"/>
      <point x="314" y="666"/>
      <point x="271" y="712"/>
      <point x="180" y="712" type="curve" smooth="yes"/>
      <point x="73" y="712"/>
      <point x="38" y="647"/>
      <point x="34" y="590" type="curve"/>
      <point x="113" y="578" type="line"/>
      <point x="115" y="616"/>
      <point x="130" y="648"/>
      <point x="181" y="648" type="curve" smooth="yes"/>
      <point x="221" y="648"/>
      <point x="240" y="623"/>
      <point x="240" y="583" type="curve" smooth="yes"/>
      <point x="240" y="553" type="line"/>
      <point x="147" y="540" type="line" smooth="yes"/>
      <point x="73" y="530"/>
      <point x="23" y="489"/>
    </contour>
    <contour>
      <point x="240" y="444" type="line" smooth="yes"/>
      <point x="240" y="397"/>
      <point x="202" y="364"/>
      <point x="158" y="364" type="curve" smooth="yes"/>
      <point x="124" y="364"/>
      <point x="100" y="382"/>
      <point x="100" y="419" type="curve" smooth="yes"/>
      <point x="100" y="456"/>
      <point x="121" y="476"/>
      <point x="160" y="482" type="curve" smooth="yes"/>
      <point x="240" y="494" type="line"/>
    </contour>
  </outline>
</glyph>
<glyph name="logicalnot" format="2">
  <advance width="680"/>
  <unicode hex="00AC"/>
  <outline>
    <contour>
      <point x="112" y="302" type="line"/>
      <point x="529" y="302" type="line"/>
      <point x="490" y="339" type="line"/>
      <point x="490" y="61" type="line"/>
      <point x="568" y="61" type="line"/>
      <point x="568" y="378" type="line"/>
      <point x="112" y="378" type="line"/>
    </contour>
  </outline>
</glyph>
<glyph name="registered" format="2">
  <advance width="600"/>
  <unicode hex="00AE"/>
  <outline>
    <contour>
      <point x="522" y="482" type="curve" smooth="yes"/>
      <point x="522" y="606"/>
      <point x="428" y="705"/>
      <point x="300" y="705" type="curve" smooth="yes"/>
      <point x="172" y="705"/>
      <point x="78" y="606"/>
      <point x="78" y="482" type="curve" smooth="yes"/>
      <point x="78" y="358"/>
      <point x="172" y="259"/>
      <point x="300" y="259" type="curve" smooth="yes"/>
      <point x="428" y="259"/>
      <point x="522" y="358"/>
    </contour>
    <contour>
      <point x="126" y="482" type="curve" smooth="yes"/>
      <point x="126" y="584"/>
      <point x="194" y="660"/>
      <point x="300" y="660" type="curve" smooth="yes"/>
      <point x="406" y="660"/>
      <point x="474" y="584"/>
      <point x="474" y="482" type="curve" smooth="yes"/>
      <point x="474" y="380"/>
      <point x="406" y="304"/>
      <point x="300" y="304" type="curve" smooth="yes"/>
      <point x="194" y="304"/>
      <point x="126" y="380"/>
    </contour>
    <contour>
      <point x="213" y="589" type="line"/>
      <point x="213" y="375" type="line"/>
      <point x="264" y="375" type="line"/>
      <point x="264" y="589" type="line"/>
    </contour>
    <contour>
      <point x="316" y="494" type="curve" smooth="yes"/>
      <point x="232" y="494" type="line"/>
      <point x="232" y="453" type="line"/>
      <point x="313" y="453" type="line" smooth="yes"/>
      <point x="369" y="453"/>
      <point x="396" y="480"/>
      <point x="396" y="520" type="curve" smooth="yes"/>
      <point x="396" y="560"/>
      <point x="368" y="589"/>
      <point x="314" y="589" type="curve" smooth="yes"/>
      <point x="233" y="589" type="line"/>
      <point x="233" y="546" type="line"/>
      <point x="316" y="546" type="line" smooth="yes"/>
      <point x="334" y="546"/>
      <point x="344" y="537"/>
      <point x="344" y="520" type="curve" smooth="yes"/>
      <point x="344" y="503"/>
      <point x="334" y="494"/>
    </contour>
    <contour>
      <point x="280" y="462" type="line"/>
      <point x="297" y="432"/>
      <point x="329" y="399"/>
      <point x="350" y="375" type="curve"/>
      <point x="408" y="375" type="line"/>
      <point x="408" y="377" type="line"/>
      <point x="387" y="400"/>
      <point x="355" y="433"/>
      <point x="337" y="462" type="curve"/>
    </contour>
  </outline>
</glyph>
<glyph name="paragraph" format="2">
  <advance width="680"/>
  <unicode hex="00B6"/>
  <outline>
    <contour>
      <point x="372" y="296" type="line"/>
      <point x="372" y="630" type="line"/>
      <point x="647" y="630" type="line"/>
      <point x="647" y="700" type="line"/>
      <point x="255" y="700" type="line" smooth="yes"/>
      <point x="128" y="700"/>
      <point x="42" y="620"/>
      <point x="42" y="498" type="curve" smooth="yes"/>
      <point x="42" y="376"/>
      <point x="128" y="296"/>
      <point x="255" y="296" type="curve" smooth="yes"/>
    </contour>
    <contour>
      <point x="417" y="700" type="line"/>
      <point x="340" y="700" type="line"/>
      <point x="340" y="-113" type="line"/>
      <point x="417" y="-113" type="line"/>
    </contour>
    <contour>
      <point x="568" y="700" type="line"/>
      <point x="491" y="700" type="line"/>
      <point x="491" y="-113" type="line"/>
      <point x="568" y="-113" type="line"/>
    </contour>
  </outline>
</glyph>
<glyph name="ordmasculine" format="2">
  <advance width="350"/>
  <unicode hex="00BA"/>
  <outline>
    <contour>
      <point x="175" y="301" type="curve" smooth="yes"/>
      <point x="265" y="301"/>
      <point x="324" y="370"/>
      <point x="324" y="506" type="curve" smooth="yes"/>
      <point x="324" y="642"/>
      <point x="265" y="712"/>
      <point x="175" y="712" type="curve" smooth="yes"/>
      <point x="85" y="712"/>
      <point x="26" y="642"/>
      <point x="26" y="506" type="curve" smooth="yes"/>
      <point x="26" y="370"/>
      <point x="85" y="301"/>
    </contour>
    <contour>
      <point x="175" y="646" type="curve" smooth="yes"/>
      <point x="224" y="646"/>
      <point x="247" y="603"/>
      <point x="247" y="506" type="curve" smooth="yes"/>
      <point x="247" y="409"/>
      <point x="224" y="367"/>
      <point x="175" y="367" type="curve" smooth="yes"/>
      <point x="126" y="367"/>
      <point x="103" y="409"/>
      <point x="103" y="506" type="curve" smooth="yes"/>
      <point x="103" y="603"/>
      <point x="126" y="646"/>
    </contour>
  </outline>
</glyph>
<glyph name="guillemetright" format="2">
  <advance width="600"/>
  <unicode hex="00BB"/>
  <outline>
    <contour>
      <point x="287" y="450" type="line"/>
      <point x="383" y="450" type="line"/>
      <point x="523" y="276" type="line"/>
      <point x="523" y="234" type="line"/>
      <point x="383" y="60" type="line"/>
      <point x="287" y="60" type="line"/>
      <point x="464" y="280" type="line"/>
      <point x="464" y="230" type="line"/>
    </contour>
    <contour>
      <point x="76" y="450" type="line"/>
      <point x="172" y="450" type="line"/>
      <point x="312" y="276" type="line"/>
      <point x="312" y="234" type="line"/>
      <point x="172" y="60" type="line"/>
      <point x="76" y="60" type="line"/>
      <point x="253" y="280" type="line"/>
      <point x="253" y="230" type="line"/>
    </contour>
  </outline>
</glyph>
<glyph name="AE" format="2">
  <advance width="680"/>
  <unicode hex="00C6"/>
  <outline>
    <contour>
      <point x="224" y="700" type="line"/>
      <point x="23" y="0" type="line"/>
      <point x="113" y="0" type="line"/>
      <point x="291" y="618" type="line"/>
      <point x="343" y="618" type="line"/>
      <point x="343" y="700" type="line"/>
    </contour>
    <contour>
      <point x="139" y="298" type="line"/>
      <point x="139" y="216" type="line"/>
      <point x="370" y="216" type="line"/>
      <point x="370" y="298" type="line"/>
    </contour>
    <contour>
      <point x="370" y="396" type="line"/>
      <point x="370" y="315" type="line"/>
      <point x="556" y="315" type="line"/>
      <point x="556" y="396" type="line"/>
    </contour>
    <contour>
      <point x="364" y="82" type="line"/>
      <point x="364" y="0" type="line"/>
      <point x="645" y="0" type="line"/>
      <point x="645" y="82" type="line"/>
    </contour>
    <contour>
      <point x="360" y="700" type="line"/>
      <point x="360" y="618" type="line"/>
      <point x="627" y="618" type="line"/>
      <point x="627" y="700" type="line"/>
    </contour>
    <contour>
      <point x="325" y="700" type="line"/>
      <point x="325" y="0" type="line"/>
      <point x="412" y="0" type="line"/>
      <point x="412" y="700" type="line"/>
    </contour>
  </outline>
</glyph>
<glyph name="Eth" format="2">
  <advance width="680"/>
  <unicode hex="00D0"/>
  <outline>
    <contour>
      <point x="156" y="82" type="line"/>
      <point x="156" y="0" type="line"/>
      <point x="330" y="0" type="line" smooth="yes"/>
      <point x="529" y="0"/>
      <point x="631" y="149"/>
      <point x="631" y="350" type="curve" smooth="yes"/>
      <point x="631" y="551"/>
      <point x="529" y="700"/>
      <point x="330" y="700" type="curve" smooth="yes"/>
      <point x="155" y="700" type="line"/>
      <point x="155" y="618" type="line"/>
      <point x="323" y="618" type="line" smooth="yes"/>
      <point x="474" y="618"/>
      <point x="539" y="516"/>
      <point x="539" y="350" type="curve" smooth="yes"/>
      <point x="539" y="184"/>
      <point x="474" y="82"/>
      <point x="323" y="82" type="curve" smooth="yes"/>
    </contour>
    <contour>
      <point x="122" y="0" type="line"/>
      <point x="213" y="0" type="line"/>
      <point x="213" y="700" type="line"/>
      <point x="122" y="700" type="line"/>
    </contour>
    <contour>
      <point x="52" y="317" type="line"/>
      <point x="344" y="317" type="line"/>
      <point x="344" y="398" type="line"/>
      <point x="52" y="398" type="line"/>
    </contour>
  </outline>
</glyph>
<glyph name="multiply" format="2">
  <advance width="600"/>
  <unicode hex="00D7"/>
  <outline>
    <contour>
      <point x="144" y="131" type="line"/>
      <point x="509" y="496" type="line"/>
      <point x="456" y="549" type="line"/>
      <point x="91" y="184" type="line"/>
    </contour>
    <contour>
      <point x="91" y="496" type="line"/>
      <point x="456" y="131" type="line"/>
      <point x="509" y="184" type="line"/>
      <point x="144" y="549" type="line"/>
    </contour>
  </outline>
</glyph>
<glyph name="Oslash" format="2">
  <advance width="680"/>
  <unicode hex="00D8"/>
  <guideline x="638" y="350" angle="90" identifier="gZQu4SSI0g"/>
  <outline>
    <contour>
      <point x="55" y="13" type="line"/>
      <point x="118" y="-32" type="line"/>
      <point x="625" y="688" type="line"/>
      <point x="562" y="733" type="line"/>
    </contour>
    <contour>
      <point x="340" y="712" type="curve" smooth="yes"/>
      <point x="170" y="712"/>
      <point x="42" y="564"/>
      <point x="42" y="350" type="curve" smooth="yes"/>
      <point x="42" y="136"/>
      <point x="170" y="-12"/>
      <point x="340" y="-12" type="curve" smooth="yes"/>
      <point x="510" y="-12"/>
      <point x="638" y="136"/>
      <point x="638" y="350" type="curve" smooth="yes"/>
      <point x="638" y="564"/>
      <point x="510" y="712"/>
    </contour>
    <contour>
      <point x="340" y="69" type="curve" smooth="yes"/>
      <point x="218" y="69"/>
      <point x="135" y="181"/>
      <point x="135" y="350" type="curve" smooth="yes"/>
      <point x="135" y="519"/>
      <point x="218" y="631"/>
      <point x="340" y="631" type="curve" smooth="yes"/>
      <point x="462" y="631"/>
      <point x="545" y="519"/>
      <point x="545" y="350" type="curve" smooth="yes"/>
      <point x="545" y="181"/>
      <point x="462" y="69"/>
    </contour>
  </outline>
</glyph>
<glyph name="ae" format="2">
  <advance width="680"/>
  <unicode hex="00E6"/>
  <outline>
    <contour>
      <point x="39" y="136" type="curve" smooth="yes"/>
      <point x="39" y="46"/>
      <point x="98" y="-12"/>
      <point x="187" y="-12" type="curve" smooth="yes"/>
      <point x="290" y="-12"/>
      <point x="363" y="60"/>
      <point x="363" y="214" type="curve" smooth="yes"/>
      <point x="363" y="325" type="line" smooth="yes"/>
      <point x="363" y="435"/>
      <point x="319" y="502"/>
      <point x="217" y="502" type="curve" smooth="yes"/>
      <point x="100" y="502"/>
      <point x="58" y="424"/>
      <point x="53" y="354" type="curve"/>
      <point x="130" y="340" type="line"/>
      <point x="133" y="383"/>
      <point x="154" y="431"/>
      <point x="216" y="431" type="curve" smooth="yes"/>
      <point x="270" y="431"/>
      <point x="289" y="396"/>
      <point x="289" y="341" type="curve" smooth="yes"/>
      <point x="289" y="171" type="line" smooth="yes"/>
      <point x="289" y="108"/>
      <point x="258" y="59"/>
      <point x="197" y="59" type="curve" smooth="yes"/>
      <point x="150" y="59"/>
      <point x="122" y="88"/>
      <point x="122" y="136" type="curve" smooth="yes"/>
      <point x="122" y="192"/>
      <point x="155" y="220"/>
      <point x="218" y="224" type="curve" smooth="yes"/>
      <point x="322" y="229" type="line"/>
      <point x="322" y="296" type="line"/>
      <point x="210" y="290" type="line" smooth="yes"/>
      <point x="116" y="284"/>
      <point x="39" y="232"/>
    </contour>
    <contour>
      <point x="304" y="244" type="curve" smooth="yes"/>
      <point x="304" y="85"/>
      <point x="363" y="-12"/>
      <point x="469" y="-12" type="curve" smooth="yes"/>
      <point x="551" y="-12"/>
      <point x="600" y="48"/>
      <point x="629" y="142" type="curve"/>
      <point x="562" y="161" type="line"/>
      <point x="543" y="92"/>
      <point x="513" y="59"/>
      <point x="469" y="59" type="curve" smooth="yes"/>
      <point x="412" y="59"/>
      <point x="376" y="123"/>
      <point x="376" y="244" type="curve" smooth="yes"/>
      <point x="376" y="359"/>
      <point x="413" y="431"/>
      <point x="469" y="431" type="curve" smooth="yes"/>
      <point x="523" y="431"/>
      <point x="554" y="374"/>
      <point x="554" y="247" type="curve"/>
      <point x="569" y="292" type="line"/>
      <point x="339" y="292" type="line"/>
      <point x="339" y="226" type="line"/>
      <point x="630" y="226" type="line"/>
      <point x="630" y="242" type="line" smooth="yes"/>
      <point x="630" y="393"/>
      <point x="575" y="502"/>
      <point x="469" y="502" type="curve" smooth="yes"/>
      <point x="362" y="502"/>
      <point x="304" y="404"/>
    </contour>
  </outline>
</glyph>
<glyph name="icircumflex" format="2">
  <advance width="350"/>
  <unicode hex="00EE"/>
  <outline>
    <contour>
      <point x="131" y="700" type="line"/>
      <point x="29" y="570" type="line"/>
      <point x="99" y="570" type="line"/>
      <point x="201" y="671" type="line"/>
      <point x="149" y="671" type="line"/>
      <point x="251" y="570" type="line"/>
      <point x="321" y="570" type="line"/>
      <point x="219" y="700" type="line"/>
    </contour>
    <component base="dotlessi"/>
  </outline>
</glyph>
<glyph name="idieresis" format="2">
  <advance width="350"/>
  <unicode hex="00EF"/>
  <outline>
    <contour>
      <point x="36" y="700" type="line"/>
      <point x="36" y="597" type="line"/>
      <point x="132" y="597" type="line"/>
      <point x="132" y="700" type="line"/>
    </contour>
    <contour>
      <point x="217" y="700" type="line"/>
      <point x="217" y="597" type="line"/>
      <point x="313" y="597" type="line"/>
      <point x="313" y="700" type="line"/>
    </contour>
    <component base="dotlessi"/>
  </outline>
</glyph>
<glyph name="dcroat" format="2">
  <advance width="600"/>
  <unicode hex="0111"/>
  <outline>
    <contour>
      <point x="271" y="554" type="line"/>
      <point x="579" y="554" type="line"/>
      <point x="579" y="619" type="line"/>
      <point x="271" y="619" type="line"/>
    </contour>
    <component base="d"/>
  </outline>
</glyph>
<glyph name="eogonek" format="2">
  <advance width="600"/>
  <unicode hex="0119"/>
  <outline>
    <contour>
      <point x="337" y="-196" type="curve" smooth="yes"/>
      <point x="358" y="-196"/>
      <point x="382" y="-193"/>
      <point x="405" y="-186" type="curve"/>
      <point x="405" y="-125" type="line"/>
      <point x="385" y="-130"/>
      <point x="369" y="-133"/>
      <point x="351" y="-133" type="curve" smooth="yes"/>
      <point x="321" y="-133"/>
      <point x="304" y="-123"/>
      <point x="304" y="-100" type="curve" smooth="yes"/>
      <point x="304" y="-64"/>
      <point x="342" y="-24"/>
      <point x="396" y="-2" type="curve" smooth="yes"/>
      <point x="466" y="26"/>
      <point x="515" y="72"/>
      <point x="536" y="142" type="curve"/>
      <point x="459" y="164" type="line"/>
      <point x="441" y="100"/>
      <point x="389" y="58"/>
      <point x="309" y="58" type="curve" smooth="yes"/>
      <point x="217" y="58"/>
      <point x="158" y="117"/>
      <point x="152" y="226" type="curve"/>
      <point x="536" y="226" type="line"/>
      <point x="536" y="242" type="line" smooth="yes"/>
      <point x="536" y="393"/>
      <point x="448" y="502"/>
      <point x="309" y="502" type="curve" smooth="yes"/>
      <point x="169" y="502"/>
      <point x="64" y="404"/>
      <point x="64" y="244" type="curve" smooth="yes"/>
      <point x="64" y="92"/>
      <point x="166" y="-11"/>
      <point x="299" y="-11" type="curve" smooth="yes"/>
      <point x="307" y="-11"/>
      <point x="318" y="-11"/>
      <point x="325" y="-11" type="curve"/>
      <point x="309" y="3" type="line"/>
      <point x="246" y="-42"/>
      <point x="229" y="-75"/>
      <point x="229" y="-113" type="curve" smooth="yes"/>
      <point x="229" y="-163"/>
      <point x="262" y="-196"/>
    </contour>
    <contour>
      <point x="309" y="432" type="curve" smooth="yes"/>
      <point x="386" y="432"/>
      <point x="438" y="388"/>
      <point x="450" y="292" type="curve"/>
      <point x="156" y="292" type="line"/>
      <point x="171" y="379"/>
      <point x="227" y="432"/>
    </contour>
  </outline>
</glyph>
<glyph name="Hbar" format="2">
  <advance width="680"/>
  <unicode hex="0126"/>
  <outline>
    <contour>
      <point x="47" y="500" type="line"/>
      <point x="633" y="500" type="line"/>
      <point x="633" y="578" type="line"/>
      <point x="47" y="578" type="line"/>
    </contour>
    <contour>
      <point x="154" y="300" type="line"/>
      <point x="527" y="300" type="line"/>
      <point x="527" y="382" type="line"/>
      <point x="154" y="382" type="line"/>
    </contour>
    <contour>
      <point x="482" y="700" type="line"/>
      <point x="482" y="0" type="line"/>
      <point x="573" y="0" type="line"/>
      <point x="573" y="700" type="line"/>
    </contour>
    <contour>
      <point x="107" y="700" type="line"/>
      <point x="107" y="0" type="line"/>
      <point x="198" y="0" type="line"/>
      <point x="198" y="700" type="line"/>
    </contour>
  </outline>
</glyph>
<glyph name="itilde" format="2">
  <advance width="350"/>
  <unicode hex="0129"/>
  <outline>
    <contour>
      <point x="120" y="677" type="curve" smooth="yes"/>
      <point x="70" y="677"/>
      <point x="44" y="635"/>
      <point x="41" y="570" type="curve"/>
      <point x="99" y="570" type="line"/>
      <point x="102" y="598"/>
      <point x="107" y="612"/>
      <point x="125" y="612" type="curve" smooth="yes"/>
      <point x="151" y="612"/>
      <point x="189" y="579"/>
      <point x="230" y="579" type="curve" smooth="yes"/>
      <point x="280" y="579"/>
      <point x="306" y="621"/>
      <point x="309" y="686" type="curve"/>
      <point x="250" y="686" type="line"/>
      <point x="248" y="658"/>
      <point x="243" y="644"/>
      <point x="225" y="644" type="curve" smooth="yes"/>
      <point x="199" y="644"/>
      <point x="161" y="677"/>
    </contour>
    <component base="dotlessi"/>
  </outline>
</glyph>
<glyph name="imacron" format="2">
  <advance width="350"/>
  <unicode hex="012B"/>
  <outline>
    <contour>
      <point x="41" y="604" type="line"/>
      <point x="309" y="604" type="line"/>
      <point x="309" y="670" type="line"/>
      <point x="41" y="670" type="line"/>
    </contour>
    <component base="dotlessi"/>
  </outline>
</glyph>
<glyph name="ibreve" format="2">
  <advance width="350"/>
  <unicode hex="012D"/>
  <outline>
    <contour>
      <point x="40" y="700" type="line"/>
      <point x="40" y="626"/>
      <point x="89" y="565"/>
      <point x="175" y="565" type="curve" smooth="yes"/>
      <point x="261" y="565"/>
      <point x="310" y="626"/>
      <point x="310" y="700" type="curve"/>
      <point x="244" y="700" type="line"/>
      <point x="244" y="658"/>
      <point x="220" y="627"/>
      <point x="175" y="627" type="curve" smooth="yes"/>
      <point x="130" y="627"/>
      <point x="106" y="658"/>
      <point x="106" y="700" type="curve"/>
    </contour>
    <component base="dotlessi"/>
  </outline>
</glyph>
<glyph name="IJ" format="2">
  <advance width="680"/>
  <unicode hex="0132"/>
  <outline>
    <contour>
      <point x="384" y="69" type="curve" smooth="yes"/>
      <point x="356" y="69"/>
      <point x="322" y="74"/>
      <point x="284" y="88" type="curve"/>
      <point x="284" y="8" type="line"/>
      <point x="321" y="-7"/>
      <point x="360" y="-12"/>
      <point x="394" y="-12" type="curve" smooth="yes"/>
      <point x="516" y="-12"/>
      <point x="569" y="57"/>
      <point x="569" y="158" type="curve" smooth="yes"/>
      <point x="569" y="700" type="line"/>
      <point x="479" y="700" type="line"/>
      <point x="479" y="163" type="line" smooth="yes"/>
      <point x="479" y="108"/>
      <point x="458" y="69"/>
    </contour>
    <contour>
      <point x="119" y="700" type="line"/>
      <point x="119" y="0" type="line"/>
      <point x="207" y="0" type="line"/>
      <point x="207" y="700" type="line"/>
    </contour>
  </outline>
</glyph>
<glyph name="ij" format="2">
  <advance width="600"/>
  <unicode hex="0133"/>
  <outline>
    <contour>
      <point x="117" y="700" type="line"/>
      <point x="117" y="597" type="line"/>
      <point x="213" y="597" type="line"/>
      <point x="213" y="700" type="line"/>
    </contour>
    <contour>
      <point x="121" y="490" type="line"/>
      <point x="121" y="0" type="line"/>
      <point x="209" y="0" type="line"/>
      <point x="209" y="490" type="line"/>
    </contour>
    <contour>
      <point x="121" y="0" type="line"/>
      <point x="209" y="0" type="line"/>
      <point x="209" y="69" type="line"/>
      <point x="121" y="69" type="line"/>
    </contour>
    <contour>
      <point x="121" y="421" type="line"/>
      <point x="209" y="421" type="line"/>
      <point x="209" y="490" type="line"/>
      <point x="121" y="490" type="line"/>
    </contour>
    <contour>
      <point x="286" y="-182" type="line"/>
      <point x="298" y="-186"/>
      <point x="319" y="-189"/>
      <point x="348" y="-189" type="curve" smooth="yes"/>
      <point x="417" y="-189"/>
      <point x="479" y="-161"/>
      <point x="479" y="-60" type="curve" smooth="yes"/>
      <point x="479" y="490" type="line"/>
      <point x="391" y="490" type="line"/>
      <point x="391" y="-55" type="line" smooth="yes"/>
      <point x="391" y="-101"/>
      <point x="366" y="-113"/>
      <point x="326" y="-113" type="curve" smooth="yes"/>
      <point x="310" y="-113"/>
      <point x="301" y="-112"/>
      <point x="286" y="-110" type="curve"/>
    </contour>
    <contour>
      <point x="391" y="428" type="line"/>
      <point x="479" y="428" type="line"/>
      <point x="479" y="490" type="line"/>
      <point x="391" y="490" type="line"/>
    </contour>
    <contour>
      <point x="387" y="700" type="line"/>
      <point x="387" y="597" type="line"/>
      <point x="483" y="597" type="line"/>
      <point x="483" y="700" type="line"/>
    </contour>
  </outline>
</glyph>
<glyph name="Ldot" format="2">
  <advance width="600"/>
  <unicode hex="013F"/>
  <outline>
    <contour>
      <point x="393" y="442" type="line"/>
      <point x="393" y="326" type="line"/>
      <point x="492" y="326" type="line"/>
      <point x="492" y="442" type="line"/>
    </contour>
    <component base="L"/>
  </outline>
</glyph>
<glyph name="lslash" format="2">
  <advance width="350"/>
  <unicode hex="0142"/>
  <outline>
    <contour>
      <point x="33" y="316" type="line"/>
      <point x="33" y="240" type="line"/>
      <point x="317" y="424" type="line"/>
      <point x="317" y="500" type="line"/>
    </contour>
    <component base="l"/>
  </outline>
</glyph>
<glyph name="Eng" format="2">
  <advance width="680"/>
  <unicode hex="014A"/>
  <outline>
    <contour>
      <point x="582" y="40" type="line"/>
      <point x="219" y="700" type="line"/>
      <point x="87" y="700" type="line"/>
      <point x="87" y="0" type="line"/>
      <point x="174" y="0" type="line"/>
      <point x="174" y="657" type="line"/>
      <point x="147" y="657" type="line"/>
      <point x="509" y="0" type="line"/>
      <point x="593" y="0" type="line"/>
      <point x="593" y="700" type="line"/>
      <point x="506" y="700" type="line"/>
      <point x="506" y="40" type="line"/>
    </contour>
    <contour>
      <point x="429" y="-111" type="curve" smooth="yes"/>
      <point x="406" y="-111"/>
      <point x="381" y="-106"/>
      <point x="360" y="-100" type="curve"/>
      <point x="360" y="-179" type="line"/>
      <point x="379" y="-185"/>
      <point x="404" y="-192"/>
      <point x="437" y="-192" type="curve" smooth="yes"/>
      <point x="528" y="-192"/>
      <point x="593" y="-145"/>
      <point x="593" y="-57" type="curve" smooth="yes"/>
      <point x="593" y="80" type="line"/>
      <point x="506" y="80" type="line"/>
      <point x="506" y="-47" type="line" smooth="yes"/>
      <point x="506" y="-90"/>
      <point x="481" y="-111"/>
    </contour>
  </outline>
</glyph>
<glyph name="eng" format="2">
  <advance width="600"/>
  <unicode hex="014B"/>
  <outline>
    <contour>
      <point x="93" y="490" type="line"/>
      <point x="93" y="0" type="line"/>
      <point x="181" y="0" type="line"/>
      <point x="181" y="298" type="line" smooth="yes"/>
      <point x="181" y="377"/>
      <point x="233" y="431"/>
      <point x="309" y="431" type="curve" smooth="yes"/>
      <point x="383" y="431"/>
      <point x="422" y="377"/>
      <point x="422" y="307" type="curve" smooth="yes"/>
      <point x="422" y="0" type="line"/>
      <point x="510" y="0" type="line"/>
      <point x="510" y="322" type="line" smooth="yes"/>
      <point x="510" y="421"/>
      <point x="444" y="502"/>
      <point x="339" y="502" type="curve" smooth="yes"/>
      <point x="257" y="502"/>
      <point x="190" y="455"/>
      <point x="157" y="386" type="curve"/>
      <point x="181" y="386" type="line"/>
      <point x="181" y="490" type="line"/>
    </contour>
    <contour>
      <point x="316" y="-180" type="line"/>
      <point x="336" y="-186"/>
      <point x="358" y="-189"/>
      <point x="380" y="-189" type="curve" smooth="yes"/>
      <point x="443" y="-189"/>
      <point x="510" y="-164"/>
      <point x="510" y="-73" type="curve" smooth="yes"/>
      <point x="510" y="121" type="line"/>
      <point x="422" y="121" type="line"/>
      <point x="422" y="-68" type="line" smooth="yes"/>
      <point x="422" y="-100"/>
      <point x="396" y="-113"/>
      <point x="360" y="-113" type="curve" smooth="yes"/>
      <point x="350" y="-113"/>
      <point x="335" y="-112"/>
      <point x="316" y="-108" type="curve"/>
    </contour>
  </outline>
</glyph>
<glyph name="OE" format="2">
  <advance width="680"/>
  <unicode hex="0152"/>
  <guideline x="340" y="734" angle="90" identifier="kSiXtjvFLP"/>
  <outline>
    <contour>
      <point x="343" y="700" type="line"/>
      <point x="343" y="0" type="line"/>
      <point x="430" y="0" type="line"/>
      <point x="430" y="700" type="line"/>
    </contour>
    <contour>
      <point x="378" y="618" type="line"/>
      <point x="645" y="618" type="line"/>
      <point x="645" y="700" type="line"/>
      <point x="378" y="700" type="line"/>
    </contour>
    <contour>
      <point x="388" y="315" type="line"/>
      <point x="574" y="315" type="line"/>
      <point x="574" y="396" type="line"/>
      <point x="388" y="396" type="line"/>
    </contour>
    <contour>
      <point x="382" y="0" type="line"/>
      <point x="663" y="0" type="line"/>
      <point x="663" y="82" type="line"/>
      <point x="382" y="82" type="line"/>
    </contour>
    <contour>
      <point x="222" y="712" type="curve" smooth="yes"/>
      <point x="114" y="712"/>
      <point x="26" y="604"/>
      <point x="26" y="350" type="curve" smooth="yes"/>
      <point x="26" y="116"/>
      <point x="114" y="-12"/>
      <point x="222" y="-12" type="curve" smooth="yes"/>
      <point x="341" y="-12"/>
      <point x="397" y="116"/>
      <point x="397" y="350" type="curve" smooth="yes"/>
      <point x="397" y="584"/>
      <point x="341" y="712"/>
    </contour>
    <contour>
      <point x="231" y="69" type="curve" smooth="yes"/>
      <point x="170" y="69"/>
      <point x="115" y="131"/>
      <point x="115" y="350" type="curve" smooth="yes"/>
      <point x="115" y="569"/>
      <point x="170" y="631"/>
      <point x="231" y="631" type="curve" smooth="yes"/>
      <point x="292" y="631"/>
      <point x="343" y="569"/>
      <point x="343" y="350" type="curve" smooth="yes"/>
      <point x="343" y="131"/>
      <point x="292" y="69"/>
    </contour>
  </outline>
</glyph>
<glyph name="oe" format="2">
  <advance width="680"/>
  <unicode hex="0153"/>
  <outline>
    <contour>
      <point x="484" y="-12" type="curve" smooth="yes"/>
      <point x="566" y="-12"/>
      <point x="615" y="48"/>
      <point x="644" y="142" type="curve"/>
      <point x="577" y="161" type="line"/>
      <point x="560" y="92"/>
      <point x="528" y="59"/>
      <point x="484" y="59" type="curve" smooth="yes"/>
      <point x="427" y="59"/>
      <point x="391" y="123"/>
      <point x="391" y="244" type="curve" smooth="yes"/>
      <point x="391" y="359"/>
      <point x="428" y="431"/>
      <point x="484" y="431" type="curve" smooth="yes"/>
      <point x="538" y="431"/>
      <point x="569" y="374"/>
      <point x="569" y="247" type="curve"/>
      <point x="584" y="292" type="line"/>
      <point x="354" y="292" type="line"/>
      <point x="354" y="226" type="line"/>
      <point x="645" y="226" type="line"/>
      <point x="645" y="242" type="line" smooth="yes"/>
      <point x="645" y="393"/>
      <point x="590" y="502"/>
      <point x="484" y="502" type="curve" smooth="yes"/>
      <point x="377" y="502"/>
      <point x="319" y="404"/>
      <point x="319" y="244" type="curve" smooth="yes"/>
      <point x="319" y="85"/>
      <point x="378" y="-12"/>
    </contour>
    <contour>
      <point x="215" y="-12" type="curve" smooth="yes"/>
      <point x="321" y="-12"/>
      <point x="380" y="87"/>
      <point x="380" y="245" type="curve" smooth="yes"/>
      <point x="380" y="403"/>
      <point x="321" y="502"/>
      <point x="215" y="502" type="curve" smooth="yes"/>
      <point x="109" y="502"/>
      <point x="36" y="403"/>
      <point x="36" y="245" type="curve" smooth="yes"/>
      <point x="36" y="87"/>
      <point x="109" y="-12"/>
    </contour>
    <contour>
      <point x="215" y="431" type="curve" smooth="yes"/>
      <point x="272" y="431"/>
      <point x="307" y="360"/>
      <point x="307" y="245" type="curve" smooth="yes"/>
      <point x="307" y="130"/>
      <point x="272" y="59"/>
      <point x="215" y="59" type="curve" smooth="yes"/>
      <point x="158" y="59"/>
      <point x="121" y="130"/>
      <point x="121" y="245" type="curve" smooth="yes"/>
      <point x="121" y="360"/>
      <point x="158" y="431"/>
    </contour>
  </outline>
</glyph>
<glyph name="Tbar" format="2">
  <advance width="680"/>
  <unicode hex="0166"/>
  <outline>
    <contour>
      <point x="140" y="325" type="line"/>
      <point x="541" y="325" type="line"/>
      <point x="541" y="403" type="line"/>
      <point x="140" y="403" type="line"/>
    </contour>
    <component base="T" xOffset="3"/>
  </outline>
</glyph>
<glyph name="tbar" format="2">
  <advance width="600"/>
  <unicode hex="0167"/>
  <outline>
    <contour>
      <point x="34" y="251" type="line"/>
      <point x="519" y="251" type="line"/>
      <point x="519" y="320" type="line"/>
      <point x="34" y="320" type="line"/>
    </contour>
    <component base="t" identifier="623CD79B"/>
  </outline>
</glyph>
<glyph name="Uogonek" format="2">
  <advance width="680"/>
  <unicode hex="0172"/>
  <outline>
    <contour>
      <point x="378" y="-196" type="curve" smooth="yes"/>
      <point x="399" y="-196"/>
      <point x="423" y="-193"/>
      <point x="446" y="-186" type="curve"/>
      <point x="446" y="-125" type="line"/>
      <point x="426" y="-130"/>
      <point x="410" y="-133"/>
      <point x="392" y="-133" type="curve" smooth="yes"/>
      <point x="362" y="-133"/>
      <point x="345" y="-123"/>
      <point x="345" y="-100" type="curve" smooth="yes"/>
      <point x="345" y="-64"/>
      <point x="388" y="-19"/>
      <point x="442" y="1" type="curve" smooth="yes"/>
      <point x="548" y="41"/>
      <point x="606" y="125"/>
      <point x="606" y="245" type="curve" smooth="yes"/>
      <point x="606" y="700" type="line"/>
      <point x="516" y="700" type="line"/>
      <point x="516" y="253" type="line" smooth="yes"/>
      <point x="516" y="146"/>
      <point x="461" y="72"/>
      <point x="341" y="72" type="curve" smooth="yes"/>
      <point x="221" y="72"/>
      <point x="165" y="146"/>
      <point x="165" y="253" type="curve" smooth="yes"/>
      <point x="165" y="700" type="line"/>
      <point x="74" y="700" type="line"/>
      <point x="74" y="245" type="line" smooth="yes"/>
      <point x="74" y="98"/>
      <point x="170" y="-12"/>
      <point x="338" y="-12" type="curve" smooth="yes"/>
      <point x="345" y="-12"/>
      <point x="353" y="-12"/>
      <point x="362" y="-12" type="curve"/>
      <point x="347" y="2" type="line"/>
      <point x="287" y="-44"/>
      <point x="270" y="-76"/>
      <point x="270" y="-113" type="curve" smooth="yes"/>
      <point x="270" y="-163"/>
      <point x="303" y="-196"/>
    </contour>
  </outline>
</glyph>
<glyph name="uogonek" format="2">
  <advance width="600"/>
  <unicode hex="0173"/>
  <outline>
    <contour>
      <point x="90" y="168" type="line" smooth="yes"/>
      <point x="90" y="69"/>
      <point x="156" y="-12"/>
      <point x="261" y="-12" type="curve" smooth="yes"/>
      <point x="343" y="-12"/>
      <point x="410" y="35"/>
      <point x="443" y="104" type="curve"/>
      <point x="419" y="104" type="line"/>
      <point x="419" y="-20" type="line"/>
      <point x="507" y="0" type="line"/>
      <point x="507" y="490" type="line"/>
      <point x="419" y="490" type="line"/>
      <point x="419" y="192" type="line" smooth="yes"/>
      <point x="419" y="113"/>
      <point x="367" y="59"/>
      <point x="291" y="59" type="curve" smooth="yes"/>
      <point x="217" y="59"/>
      <point x="178" y="113"/>
      <point x="178" y="183" type="curve" smooth="yes"/>
      <point x="178" y="490" type="line"/>
      <point x="90" y="490" type="line"/>
    </contour>
    <contour>
      <point x="344" y="-113" type="curve" smooth="yes"/>
      <point x="344" y="-163"/>
      <point x="377" y="-196"/>
      <point x="452" y="-196" type="curve" smooth="yes"/>
      <point x="473" y="-196"/>
      <point x="497" y="-193"/>
      <point x="520" y="-186" type="curve"/>
      <point x="520" y="-125" type="line"/>
      <point x="500" y="-130"/>
      <point x="484" y="-133"/>
      <point x="466" y="-133" type="curve" smooth="yes"/>
      <point x="436" y="-133"/>
      <point x="419" y="-123"/>
      <point x="419" y="-100" type="curve" smooth="yes"/>
      <point x="419" y="-64"/>
      <point x="457" y="-30"/>
      <point x="507" y="0" type="curve"/>
      <point x="424" y="0" type="line"/>
      <point x="384" y="-24"/>
      <point x="344" y="-59"/>
    </contour>
  </outline>
</glyph>
<glyph name="Bhook" format="2">
  <advance width="680"/>
  <unicode hex="0181"/>
  <outline>
    <contour>
      <point x="175" y="700" type="line"/>
      <point x="175" y="0" type="line"/>
      <point x="265" y="0" type="line"/>
      <point x="265" y="700" type="line"/>
    </contour>
    <contour>
      <point x="423" y="0" type="line" smooth="yes"/>
      <point x="554" y="0"/>
      <point x="638" y="87"/>
      <point x="638" y="199" type="curve" smooth="yes"/>
      <point x="638" y="294"/>
      <point x="578" y="350"/>
      <point x="517" y="374" type="curve"/>
      <point x="517" y="356" type="line"/>
      <point x="573" y="374"/>
      <point x="623" y="430"/>
      <point x="623" y="513" type="curve" smooth="yes"/>
      <point x="623" y="623"/>
      <point x="543" y="700"/>
      <point x="423" y="700" type="curve" smooth="yes"/>
      <point x="210" y="700" type="line"/>
      <point x="210" y="620" type="line"/>
      <point x="416" y="620" type="line" smooth="yes"/>
      <point x="489" y="620"/>
      <point x="535" y="576"/>
      <point x="535" y="510" type="curve" smooth="yes"/>
      <point x="535" y="444"/>
      <point x="493" y="399"/>
      <point x="420" y="399" type="curve" smooth="yes"/>
      <point x="209" y="399" type="line"/>
      <point x="209" y="320" type="line"/>
      <point x="417" y="320" type="line" smooth="yes"/>
      <point x="490" y="320"/>
      <point x="547" y="277"/>
      <point x="547" y="200" type="curve" smooth="yes"/>
      <point x="547" y="125"/>
      <point x="494" y="80"/>
      <point x="417" y="80" type="curve" smooth="yes"/>
      <point x="210" y="80" type="line"/>
      <point x="210" y="0" type="line"/>
    </contour>
    <contour>
      <point x="246" y="700" type="line"/>
      <point x="172" y="700" type="line" smooth="yes"/>
      <point x="64" y="700"/>
      <point x="14" y="629"/>
      <point x="14" y="550" type="curve" smooth="yes"/>
      <point x="14" y="505"/>
      <point x="29" y="477"/>
      <point x="44" y="452" type="curve"/>
      <point x="132" y="457" type="line"/>
      <point x="113" y="487"/>
      <point x="102" y="513"/>
      <point x="102" y="545" type="curve" smooth="yes"/>
      <point x="102" y="595"/>
      <point x="129" y="620"/>
      <point x="175" y="620" type="curve" smooth="yes"/>
      <point x="246" y="620" type="line"/>
    </contour>
  </outline>
</glyph>
<glyph name="Oopen" format="2">
  <advance width="680"/>
  <unicode hex="0186"/>
  <outline>
    <contour>
      <point x="43" y="491" type="curve"/>
      <point x="131" y="467" type="line"/>
      <point x="156" y="560"/>
      <point x="225" y="631"/>
      <point x="325" y="631" type="curve" smooth="yes"/>
      <point x="455" y="631"/>
      <point x="535" y="519"/>
      <point x="535" y="350" type="curve" smooth="yes"/>
      <point x="535" y="181"/>
      <point x="455" y="69"/>
      <point x="325" y="69" type="curve" smooth="yes"/>
      <point x="225" y="69"/>
      <point x="155" y="143"/>
      <point x="130" y="236" type="curve"/>
      <point x="42" y="211" type="line"/>
      <point x="74" y="81"/>
      <point x="184" y="-12"/>
      <point x="325" y="-12" type="curve" smooth="yes"/>
      <point x="503" y="-12"/>
      <point x="628" y="136"/>
      <point x="628" y="350" type="curve" smooth="yes"/>
      <point x="628" y="564"/>
      <point x="503" y="712"/>
      <point x="325" y="712" type="curve" smooth="yes"/>
      <point x="187" y="712"/>
      <point x="77" y="620"/>
    </contour>
  </outline>
</glyph>
<glyph name="Dhook" format="2">
  <advance width="680"/>
  <unicode hex="018A"/>
  <outline>
    <contour>
      <point x="212" y="80" type="line"/>
      <point x="212" y="0" type="line"/>
      <point x="368" y="0" type="line" smooth="yes"/>
      <point x="539" y="0"/>
      <point x="640" y="139"/>
      <point x="640" y="350" type="curve" smooth="yes"/>
      <point x="640" y="561"/>
      <point x="539" y="700"/>
      <point x="368" y="700" type="curve" smooth="yes"/>
      <point x="211" y="700" type="line"/>
      <point x="211" y="620" type="line"/>
      <point x="361" y="620" type="line" smooth="yes"/>
      <point x="483" y="620"/>
      <point x="549" y="526"/>
      <point x="549" y="350" type="curve" smooth="yes"/>
      <point x="549" y="174"/>
      <point x="483" y="80"/>
      <point x="361" y="80" type="curve" smooth="yes"/>
    </contour>
    <contour>
      <point x="178" y="0" type="line"/>
      <point x="268" y="0" type="line"/>
      <point x="268" y="700" type="line"/>
      <point x="178" y="700" type="line"/>
    </contour>
    <contour>
      <point x="239" y="700" type="line"/>
      <point x="155" y="700" type="line" smooth="yes"/>
      <point x="64" y="700"/>
      <point x="14" y="631"/>
      <point x="14" y="552" type="curve" smooth="yes"/>
      <point x="14" y="507"/>
      <point x="28" y="479"/>
      <point x="41" y="455" type="curve"/>
      <point x="129" y="460" type="line"/>
      <point x="112" y="489"/>
      <point x="102" y="515"/>
      <point x="102" y="547" type="curve" smooth="yes"/>
      <point x="102" y="597"/>
      <point x="129" y="620"/>
      <point x="158" y="620" type="curve" smooth="yes"/>
      <point x="239" y="620" type="line"/>
    </contour>
  </outline>
</glyph>
<glyph name="Schwa" format="2">
  <advance width="680"/>
  <unicode hex="018F"/>
  <outline>
    <contour>
      <point x="340" y="712" type="curve" smooth="yes"/>
      <point x="205" y="712"/>
      <point x="100" y="623"/>
      <point x="59" y="493" type="curve"/>
      <point x="140" y="469" type="line"/>
      <point x="168" y="562"/>
      <point x="235" y="632"/>
      <point x="340" y="632" type="curve" smooth="yes"/>
      <point x="466" y="632"/>
      <point x="541" y="512"/>
      <point x="541" y="352" type="curve" smooth="yes"/>
      <point x="541" y="183"/>
      <point x="458" y="69"/>
      <point x="334" y="69" type="curve" smooth="yes"/>
      <point x="208" y="69"/>
      <point x="130" y="178"/>
      <point x="131" y="348" type="curve"/>
      <point x="119" y="291" type="line"/>
      <point x="572" y="291" type="line"/>
      <point x="572" y="366" type="line"/>
      <point x="39" y="366" type="line"/>
      <point x="39" y="355" type="line" smooth="yes"/>
      <point x="39" y="151"/>
      <point x="148" y="-12"/>
      <point x="334" y="-12" type="curve" smooth="yes"/>
      <point x="505" y="-12"/>
      <point x="631" y="138"/>
      <point x="631" y="352" type="curve" smooth="yes"/>
      <point x="631" y="555"/>
      <point x="513" y="712"/>
    </contour>
  </outline>
</glyph>
<glyph name="khook" format="2">
  <advance width="600"/>
  <unicode hex="0199"/>
  <outline>
    <contour>
      <point x="156" y="236" type="line"/>
      <point x="156" y="140" type="line"/>
      <point x="280" y="255" type="line"/>
      <point x="313" y="275" type="line"/>
      <point x="548" y="490" type="line"/>
      <point x="437" y="490" type="line"/>
    </contour>
    <contour>
      <point x="239" y="266" type="line"/>
      <point x="460" y="0" type="line"/>
      <point x="566" y="0" type="line"/>
      <point x="305" y="316" type="line"/>
    </contour>
    <contour>
      <point x="199" y="576" type="line" smooth="yes"/>
      <point x="199" y="618"/>
      <point x="222" y="631"/>
      <point x="254" y="631" type="curve" smooth="yes"/>
      <point x="271" y="631"/>
      <point x="294" y="626"/>
      <point x="311" y="619" type="curve"/>
      <point x="314" y="692" type="line"/>
      <point x="296" y="700"/>
      <point x="267" y="706"/>
      <point x="239" y="706" type="curve" smooth="yes"/>
      <point x="157" y="706"/>
      <point x="111" y="654"/>
      <point x="111" y="581" type="curve" smooth="yes"/>
      <point x="111" y="0" type="line"/>
      <point x="199" y="0" type="line"/>
    </contour>
  </outline>
</glyph>
<glyph name="Nhookleft" format="2">
  <advance width="680"/>
  <unicode hex="019D"/>
  <outline>
    <contour>
      <point x="559" y="40" type="line"/>
      <point x="219" y="700" type="line"/>
      <point x="87" y="700" type="line"/>
      <point x="87" y="0" type="line"/>
      <point x="174" y="0" type="line"/>
      <point x="174" y="657" type="line"/>
      <point x="147" y="657" type="line"/>
      <point x="485" y="0" type="line"/>
      <point x="593" y="0" type="line"/>
      <point x="593" y="700" type="line"/>
      <point x="506" y="700" type="line"/>
      <point x="506" y="40" type="line"/>
    </contour>
    <contour>
      <point x="31" y="-111" type="curve" smooth="yes"/>
      <point x="19" y="-111"/>
      <point x="0" y="-109"/>
      <point x="-17" y="-103" type="curve"/>
      <point x="-17" y="-183" type="line"/>
      <point x="1" y="-189"/>
      <point x="22" y="-192"/>
      <point x="41" y="-192" type="curve" smooth="yes"/>
      <point x="118" y="-192"/>
      <point x="174" y="-151"/>
      <point x="174" y="-66" type="curve" smooth="yes"/>
      <point x="174" y="80" type="line"/>
      <point x="87" y="80" type="line"/>
      <point x="87" y="-58" type="line" smooth="yes"/>
      <point x="87" y="-98"/>
      <point x="60" y="-111"/>
    </contour>
  </outline>
</glyph>
<glyph name="Uhorn" format="2">
  <advance width="680"/>
  <unicode hex="01AF"/>
  <outline>
    <contour>
      <point x="74" y="245" type="line" smooth="yes"/>
      <point x="74" y="95"/>
      <point x="171" y="-12"/>
      <point x="341" y="-12" type="curve" smooth="yes"/>
      <point x="511" y="-12"/>
      <point x="606" y="95"/>
      <point x="606" y="245" type="curve" smooth="yes"/>
      <point x="606" y="700" type="line"/>
      <point x="516" y="700" type="line"/>
      <point x="516" y="253" type="line" smooth="yes"/>
      <point x="516" y="146"/>
      <point x="461" y="72"/>
      <point x="341" y="72" type="curve" smooth="yes"/>
      <point x="221" y="72"/>
      <point x="165" y="146"/>
      <point x="165" y="253" type="curve" smooth="yes"/>
      <point x="165" y="700" type="line"/>
      <point x="74" y="700" type="line"/>
    </contour>
    <component base="horncmb.uc" xOffset="303"/>
  </outline>
</glyph>
<glyph name="yhook" format="2">
  <advance width="600"/>
  <unicode hex="01B4"/>
  <outline>
    <contour>
      <point x="44" y="490" type="line"/>
      <point x="286" y="-60" type="line"/>
      <point x="329" y="47" type="line"/>
      <point x="139" y="490" type="line"/>
    </contour>
    <contour>
      <point x="506" y="378" type="line" smooth="yes"/>
      <point x="522" y="414"/>
      <point x="533" y="426"/>
      <point x="555" y="426" type="curve" smooth="yes"/>
      <point x="569" y="426"/>
      <point x="582" y="421"/>
      <point x="593" y="415" type="curve"/>
      <point x="596" y="487" type="line"/>
      <point x="582" y="495"/>
      <point x="562" y="502"/>
      <point x="536" y="502" type="curve" smooth="yes"/>
      <point x="477" y="502"/>
      <point x="451" y="465"/>
      <point x="422" y="398" type="curve" smooth="yes"/>
      <point x="275" y="56" type="line"/>
      <point x="261" y="28" type="line"/>
      <point x="162" y="-180" type="line"/>
      <point x="255" y="-180" type="line"/>
    </contour>
  </outline>
</glyph>
<glyph name="icaron" format="2">
  <advance width="350"/>
  <unicode hex="01D0"/>
  <outline>
    <contour>
      <point x="131" y="570" type="line"/>
      <point x="219" y="570" type="line"/>
      <point x="321" y="700" type="line"/>
      <point x="251" y="700" type="line"/>
      <point x="149" y="599" type="line"/>
      <point x="201" y="599" type="line"/>
      <point x="99" y="700" type="line"/>
      <point x="29" y="700" type="line"/>
    </contour>
    <component base="dotlessi"/>
  </outline>
</glyph>
<glyph name="eturned" format="2">
  <advance width="600"/>
  <unicode hex="01DD"/>
  <outline>
    <contour>
      <point x="296" y="502" type="curve" smooth="yes"/>
      <point x="183" y="502"/>
      <point x="99" y="441"/>
      <point x="68" y="350" type="curve"/>
      <point x="148" y="326" type="line"/>
      <point x="169" y="388"/>
      <point x="221" y="432"/>
      <point x="296" y="432" type="curve" smooth="yes"/>
      <point x="392" y="432"/>
      <point x="448" y="367"/>
      <point x="448" y="246" type="curve" smooth="yes"/>
      <point x="448" y="131"/>
      <point x="392" y="58"/>
      <point x="299" y="58" type="curve" smooth="yes"/>
      <point x="211" y="58"/>
      <point x="147" y="116"/>
      <point x="147" y="243" type="curve"/>
      <point x="134" y="198" type="line"/>
      <point x="487" y="198" type="line"/>
      <point x="487" y="264" type="line"/>
      <point x="61" y="264" type="line"/>
      <point x="61" y="248" type="line" smooth="yes"/>
      <point x="61" y="97"/>
      <point x="157" y="-12"/>
      <point x="299" y="-12" type="curve" smooth="yes"/>
      <point x="436" y="-12"/>
      <point x="536" y="86"/>
      <point x="536" y="246" type="curve" smooth="yes"/>
      <point x="536" y="405"/>
      <point x="434" y="502"/>
    </contour>
  </outline>
</glyph>
<glyph name="Oogonek" format="2">
  <advance width="680"/>
  <unicode hex="01EA"/>
  <outline>
    <contour>
      <point x="366" y="-196" type="curve" smooth="yes"/>
      <point x="387" y="-196"/>
      <point x="411" y="-193"/>
      <point x="434" y="-186" type="curve"/>
      <point x="434" y="-125" type="line"/>
      <point x="414" y="-130"/>
      <point x="398" y="-133"/>
      <point x="380" y="-133" type="curve" smooth="yes"/>
      <point x="350" y="-133"/>
      <point x="333" y="-123"/>
      <point x="333" y="-100" type="curve" smooth="yes"/>
      <point x="333" y="-64"/>
      <point x="377" y="-17"/>
      <point x="431" y="3" type="curve" smooth="yes"/>
      <point x="553" y="49"/>
      <point x="638" y="171"/>
      <point x="638" y="350" type="curve" smooth="yes"/>
      <point x="638" y="564"/>
      <point x="510" y="712"/>
      <point x="340" y="712" type="curve" smooth="yes"/>
      <point x="170" y="712"/>
      <point x="42" y="564"/>
      <point x="42" y="350" type="curve" smooth="yes"/>
      <point x="42" y="144"/>
      <point x="167" y="-11"/>
      <point x="331" y="-11" type="curve"/>
      <point x="339" y="-11"/>
      <point x="347" y="-11"/>
      <point x="355" y="-11" type="curve"/>
      <point x="328" y="-2" type="line"/>
      <point x="275" y="-45"/>
      <point x="258" y="-78"/>
      <point x="258" y="-113" type="curve" smooth="yes"/>
      <point x="258" y="-163"/>
      <point x="291" y="-196"/>
    </contour>
    <contour>
      <point x="340" y="69" type="curve" smooth="yes"/>
      <point x="218" y="69"/>
      <point x="135" y="181"/>
      <point x="135" y="350" type="curve" smooth="yes"/>
      <point x="135" y="519"/>
      <point x="218" y="631"/>
      <point x="340" y="631" type="curve" smooth="yes"/>
      <point x="462" y="631"/>
      <point x="545" y="519"/>
      <point x="545" y="350" type="curve" smooth="yes"/>
      <point x="545" y="181"/>
      <point x="462" y="69"/>
    </contour>
  </outline>
</glyph>
<glyph name="dotlessj" format="2">
  <advance width="350"/>
  <unicode hex="0237"/>
  <outline>
    <contour>
      <point x="26" y="-182" type="line"/>
      <point x="38" y="-186"/>
      <point x="59" y="-189"/>
      <point x="88" y="-189" type="curve" smooth="yes"/>
      <point x="157" y="-189"/>
      <point x="219" y="-161"/>
      <point x="219" y="-60" type="curve" smooth="yes"/>
      <point x="219" y="490" type="line"/>
      <point x="131" y="490" type="line"/>
      <point x="131" y="-55" type="line" smooth="yes"/>
      <point x="131" y="-101"/>
      <point x="106" y="-113"/>
      <point x="66" y="-113" type="curve" smooth="yes"/>
      <point x="50" y="-113"/>
      <point x="41" y="-112"/>
      <point x="26" y="-110" type="curve"/>
    </contour>
    <contour>
      <point x="131" y="428" type="line"/>
      <point x="219" y="428" type="line"/>
      <point x="219" y="490" type="line"/>
      <point x="131" y="490" type="line"/>
    </contour>
  </outline>
</glyph>
<glyph name="oopen" format="2">
  <advance width="600"/>
  <unicode hex="0254"/>
  <outline>
    <contour>
      <point x="63" y="144" type="line"/>
      <point x="92" y="45"/>
      <point x="178" y="-12"/>
      <point x="286" y="-12" type="curve" smooth="yes"/>
      <point x="426" y="-12"/>
      <point x="528" y="87"/>
      <point x="528" y="245" type="curve" smooth="yes"/>
      <point x="528" y="403"/>
      <point x="429" y="502"/>
      <point x="289" y="502" type="curve" smooth="yes"/>
      <point x="183" y="502"/>
      <point x="92" y="447"/>
      <point x="63" y="348" type="curve"/>
      <point x="153" y="326" type="line"/>
      <point x="170" y="392"/>
      <point x="222" y="432"/>
      <point x="289" y="432" type="curve" smooth="yes"/>
      <point x="385" y="432"/>
      <point x="439" y="360"/>
      <point x="439" y="245" type="curve" smooth="yes"/>
      <point x="439" y="130"/>
      <point x="383" y="58"/>
      <point x="287" y="58" type="curve" smooth="yes"/>
      <point x="220" y="58"/>
      <point x="169" y="97"/>
      <point x="153" y="166" type="curve"/>
    </contour>
  </outline>
</glyph>
<glyph name="istroke" format="2">
  <advance width="350"/>
  <unicode hex="0268"/>
  <outline>
    <contour>
      <point x="310" y="264" type="line"/>
      <point x="310" y="332" type="line"/>
      <point x="40" y="332" type="line"/>
      <point x="40" y="264" type="line"/>
    </contour>
    <component base="i"/>
  </outline>
</glyph>
<glyph name="nhookleft" format="2">
  <advance width="600"/>
  <unicode hex="0272"/>
  <outline>
    <contour>
      <point x="93" y="490" type="line"/>
      <point x="93" y="0" type="line"/>
      <point x="181" y="0" type="line"/>
      <point x="181" y="298" type="line" smooth="yes"/>
      <point x="181" y="377"/>
      <point x="233" y="431"/>
      <point x="309" y="431" type="curve" smooth="yes"/>
      <point x="383" y="431"/>
      <point x="422" y="377"/>
      <point x="422" y="307" type="curve" smooth="yes"/>
      <point x="422" y="0" type="line"/>
      <point x="510" y="0" type="line"/>
      <point x="510" y="322" type="line" smooth="yes"/>
      <point x="510" y="421"/>
      <point x="444" y="502"/>
      <point x="339" y="502" type="curve" smooth="yes"/>
      <point x="257" y="502"/>
      <point x="190" y="455"/>
      <point x="157" y="386" type="curve"/>
      <point x="181" y="386" type="line"/>
      <point x="181" y="490" type="line"/>
    </contour>
    <contour>
      <point x="-13" y="-180" type="line"/>
      <point x="7" y="-186"/>
      <point x="29" y="-189"/>
      <point x="51" y="-189" type="curve" smooth="yes"/>
      <point x="114" y="-189"/>
      <point x="181" y="-164"/>
      <point x="181" y="-73" type="curve" smooth="yes"/>
      <point x="181" y="121" type="line"/>
      <point x="93" y="121" type="line"/>
      <point x="93" y="-68" type="line" smooth="yes"/>
      <point x="93" y="-100"/>
      <point x="67" y="-113"/>
      <point x="31" y="-113" type="curve" smooth="yes"/>
      <point x="21" y="-113"/>
      <point x="6" y="-112"/>
      <point x="-13" y="-108" type="curve"/>
    </contour>
  </outline>
</glyph>
<glyph name="vturned" format="2">
  <advance width="600"/>
  <unicode hex="028C"/>
  <outline>
    <contour>
      <point x="347" y="490" type="line"/>
      <point x="251" y="490" type="line"/>
      <point x="44" y="0" type="line"/>
      <point x="137" y="0" type="line"/>
      <point x="319" y="442" type="line"/>
      <point x="278" y="442" type="line"/>
      <point x="463" y="0" type="line"/>
      <point x="556" y="0" type="line"/>
    </contour>
  </outline>
</glyph>
<glyph name="ringhalfrightmod" format="2">
  <advance width="350"/>
  <unicode hex="02BE"/>
  <outline>
    <contour>
      <point x="100" y="446" type="line" smooth="yes"/>
      <point x="153" y="446"/>
      <point x="188" y="484"/>
      <point x="188" y="537" type="curve" smooth="yes"/>
      <point x="188" y="590"/>
      <point x="153" y="629"/>
      <point x="100" y="629" type="curve" smooth="yes"/>
      <point x="86" y="629" type="line"/>
      <point x="86" y="700" type="line"/>
      <point x="100" y="700" type="line" smooth="yes"/>
      <point x="192" y="700"/>
      <point x="264" y="632"/>
      <point x="264" y="537" type="curve" smooth="yes"/>
      <point x="264" y="442"/>
      <point x="192" y="375"/>
      <point x="100" y="375" type="curve" smooth="yes"/>
      <point x="86" y="375" type="line"/>
      <point x="86" y="446" type="line"/>
    </contour>
  </outline>
</glyph>
<glyph name="ringhalfleftmod" format="2">
  <advance width="350"/>
  <unicode hex="02BF"/>
  <outline>
    <contour>
      <point x="250" y="446" type="line" smooth="yes"/>
      <point x="197" y="446"/>
      <point x="162" y="484"/>
      <point x="162" y="537" type="curve" smooth="yes"/>
      <point x="162" y="590"/>
      <point x="197" y="629"/>
      <point x="250" y="629" type="curve" smooth="yes"/>
      <point x="264" y="629" type="line"/>
      <point x="264" y="700" type="line"/>
      <point x="250" y="700" type="line" smooth="yes"/>
      <point x="158" y="700"/>
      <point x="86" y="632"/>
      <point x="86" y="537" type="curve" smooth="yes"/>
      <point x="86" y="442"/>
      <point x="158" y="375"/>
      <point x="250" y="375" type="curve" smooth="yes"/>
      <point x="264" y="375" type="line"/>
      <point x="264" y="446" type="line"/>
    </contour>
  </outline>
</glyph>
<glyph name="macroncmb" format="2">
  <advance width="600"/>
  <unicode hex="0304"/>
  <outline>
    <contour>
      <point x="166" y="604" type="line"/>
      <point x="434" y="604" type="line"/>
      <point x="434" y="670" type="line"/>
      <point x="166" y="670" type="line"/>
    </contour>
  </outline>
</glyph>
<glyph name="horncmb" format="2">
  <advance width="600"/>
  <unicode hex="031B"/>
  <outline>
    <contour>
      <point x="320" y="576" type="line"/>
      <point x="325" y="559"/>
      <point x="327" y="542"/>
      <point x="327" y="528" type="curve" smooth="yes"/>
      <point x="327" y="496"/>
      <point x="312" y="490"/>
      <point x="280" y="490" type="curve" smooth="yes"/>
      <point x="230" y="490" type="line"/>
      <point x="230" y="434" type="line"/>
      <point x="287" y="434" type="line" smooth="yes"/>
      <point x="366" y="434"/>
      <point x="393" y="460"/>
      <point x="393" y="518" type="curve" smooth="yes"/>
      <point x="393" y="538"/>
      <point x="391" y="559"/>
      <point x="385" y="576" type="curve"/>
    </contour>
  </outline>
</glyph>
<glyph name="commaaccentbelowcmb" format="2">
  <advance width="600"/>
  <unicode hex="0326"/>
  <outline>
    <contour>
      <point x="252" y="-77" type="line"/>
      <point x="252" y="-180" type="line"/>
      <point x="298" y="-180" type="line"/>
      <point x="298" y="-186" type="line" smooth="yes"/>
      <point x="298" y="-216"/>
      <point x="278" y="-236"/>
      <point x="240" y="-236" type="curve"/>
      <point x="240" y="-281" type="line"/>
      <point x="328" y="-281"/>
      <point x="348" y="-219"/>
      <point x="348" y="-186" type="curve" smooth="yes"/>
      <point x="348" y="-77" type="line"/>
    </contour>
  </outline>
</glyph>
<glyph name="ogonekcmb" format="2">
  <advance width="600"/>
  <unicode hex="0328"/>
  <outline>
    <contour>
      <point x="314" y="-196" type="curve" smooth="yes"/>
      <point x="335" y="-196"/>
      <point x="359" y="-193"/>
      <point x="382" y="-186" type="curve"/>
      <point x="382" y="-125" type="line"/>
      <point x="362" y="-130"/>
      <point x="346" y="-133"/>
      <point x="328" y="-133" type="curve" smooth="yes"/>
      <point x="298" y="-133"/>
      <point x="281" y="-123"/>
      <point x="281" y="-100" type="curve" smooth="yes"/>
      <point x="281" y="-64"/>
      <point x="319" y="-30"/>
      <point x="369" y="0" type="curve"/>
      <point x="286" y="0" type="line"/>
      <point x="246" y="-24"/>
      <point x="206" y="-59"/>
      <point x="206" y="-113" type="curve" smooth="yes"/>
      <point x="206" y="-163"/>
      <point x="239" y="-196"/>
    </contour>
  </outline>
</glyph>
<glyph name="lmacrondot" format="2">
  <advance width="350"/>
  <unicode hex="1E39"/>
  <outline>
    <contour>
      <point x="38" y="776" type="line"/>
      <point x="312" y="776" type="line"/>
      <point x="312" y="844" type="line"/>
      <point x="38" y="844" type="line"/>
    </contour>
    <component base="l"/>
    <component base="dotbelowcmb" xOffset="-125"/>
  </outline>
</glyph>
<glyph name="rlinebelow" format="2">
  <advance width="600"/>
  <unicode hex="1E5F"/>
  <outline>
    <contour>
      <point x="53" y="-86" type="line"/>
      <point x="321" y="-86" type="line"/>
      <point x="321" y="-152" type="line"/>
      <point x="53" y="-152" type="line"/>
    </contour>
    <component base="r"/>
  </outline>
</glyph>
<glyph name="Germandbls" format="2">
  <advance width="680"/>
  <unicode hex="1E9E"/>
  <outline>
    <contour>
      <point x="103" y="700" type="line"/>
      <point x="103" y="0" type="line"/>
      <point x="194" y="0" type="line"/>
      <point x="194" y="700" type="line"/>
    </contour>
    <contour>
      <point x="576" y="618" type="line"/>
      <point x="576" y="700" type="line"/>
      <point x="138" y="700" type="line"/>
      <point x="138" y="618" type="line"/>
      <point x="532" y="618" type="line"/>
      <point x="500" y="649" type="line"/>
      <point x="288" y="421" type="line"/>
      <point x="288" y="351" type="line"/>
      <point x="385" y="351" type="line" smooth="yes"/>
      <point x="489" y="351"/>
      <point x="532" y="293"/>
      <point x="532" y="212" type="curve" smooth="yes"/>
      <point x="532" y="127"/>
      <point x="482" y="68"/>
      <point x="387" y="68" type="curve" smooth="yes"/>
      <point x="359" y="68"/>
      <point x="318" y="73"/>
      <point x="275" y="87" type="curve"/>
      <point x="275" y="7" type="line"/>
      <point x="319" y="-7"/>
      <point x="361" y="-12"/>
      <point x="389" y="-12" type="curve" smooth="yes"/>
      <point x="531" y="-12"/>
      <point x="624" y="81"/>
      <point x="624" y="211" type="curve" smooth="yes"/>
      <point x="624" y="337"/>
      <point x="539" y="428"/>
      <point x="399" y="428" type="curve" smooth="yes"/>
      <point x="338" y="428" type="line"/>
      <point x="378" y="406" type="line"/>
    </contour>
  </outline>
</glyph>
<glyph name="quotedblright" format="2">
  <advance width="600"/>
  <unicode hex="201D"/>
  <outline>
    <contour>
      <point x="166" y="700" type="line"/>
      <point x="166" y="565" type="line"/>
      <point x="223" y="565" type="line"/>
      <point x="223" y="555" type="line" smooth="yes"/>
      <point x="223" y="511"/>
      <point x="195" y="484"/>
      <point x="147" y="484" type="curve"/>
      <point x="147" y="434" type="line"/>
      <point x="253" y="434"/>
      <point x="280" y="510"/>
      <point x="280" y="555" type="curve" smooth="yes"/>
      <point x="280" y="700" type="line"/>
    </contour>
    <contour>
      <point x="346" y="700" type="line"/>
      <point x="346" y="565" type="line"/>
      <point x="403" y="565" type="line"/>
      <point x="403" y="555" type="line" smooth="yes"/>
      <point x="403" y="511"/>
      <point x="375" y="484"/>
      <point x="327" y="484" type="curve"/>
      <point x="327" y="434" type="line"/>
      <point x="433" y="434"/>
      <point x="460" y="510"/>
      <point x="460" y="555" type="curve" smooth="yes"/>
      <point x="460" y="700" type="line"/>
    </contour>
  </outline>
</glyph>
<glyph name="ellipsis" format="2">
  <advance width="680"/>
  <unicode hex="2026"/>
  <outline>
    <contour>
      <point x="56" y="134" type="line"/>
      <point x="56" y="0" type="line"/>
      <point x="170" y="0" type="line"/>
      <point x="170" y="134" type="line"/>
    </contour>
    <contour>
      <point x="283" y="134" type="line"/>
      <point x="283" y="0" type="line"/>
      <point x="397" y="0" type="line"/>
      <point x="397" y="134" type="line"/>
    </contour>
    <contour>
      <point x="510" y="134" type="line"/>
      <point x="510" y="0" type="line"/>
      <point x="624" y="0" type="line"/>
      <point x="624" y="134" type="line"/>
    </contour>
  </outline>
</glyph>
<glyph name="perthousand" format="2">
  <advance width="680"/>
  <unicode hex="2030"/>
  <outline>
    <contour>
      <point x="51" y="190" type="line"/>
      <point x="629" y="551" type="line"/>
      <point x="629" y="621" type="line"/>
      <point x="51" y="260" type="line"/>
    </contour>
    <contour>
      <point x="51" y="554" type="curve" smooth="yes"/>
      <point x="51" y="464"/>
      <point x="98" y="402"/>
      <point x="175" y="402" type="curve" smooth="yes"/>
      <point x="250" y="402"/>
      <point x="298" y="465"/>
      <point x="298" y="554" type="curve" smooth="yes"/>
      <point x="298" y="642"/>
      <point x="250" y="705"/>
      <point x="175" y="705" type="curve" smooth="yes"/>
      <point x="98" y="705"/>
      <point x="51" y="642"/>
    </contour>
    <contour>
      <point x="114" y="554" type="curve" smooth="yes"/>
      <point x="114" y="615"/>
      <point x="139" y="648"/>
      <point x="175" y="648" type="curve" smooth="yes"/>
      <point x="209" y="648"/>
      <point x="235" y="614"/>
      <point x="235" y="554" type="curve" smooth="yes"/>
      <point x="235" y="491"/>
      <point x="209" y="459"/>
      <point x="175" y="459" type="curve" smooth="yes"/>
      <point x="139" y="459"/>
      <point x="114" y="491"/>
    </contour>
    <contour>
      <point x="163" y="128" type="curve" smooth="yes"/>
      <point x="163" y="50"/>
      <point x="204" y="-5"/>
      <point x="272" y="-5" type="curve" smooth="yes"/>
      <point x="340" y="-5"/>
      <point x="383" y="50"/>
      <point x="383" y="128" type="curve" smooth="yes"/>
      <point x="383" y="205"/>
      <point x="340" y="262"/>
      <point x="272" y="262" type="curve" smooth="yes"/>
      <point x="204" y="262"/>
      <point x="163" y="205"/>
    </contour>
    <contour>
      <point x="226" y="128" type="curve" smooth="yes"/>
      <point x="226" y="178"/>
      <point x="245" y="205"/>
      <point x="272" y="205" type="curve" smooth="yes"/>
      <point x="299" y="205"/>
      <point x="320" y="178"/>
      <point x="320" y="128" type="curve" smooth="yes"/>
      <point x="320" y="77"/>
      <point x="299" y="52"/>
      <point x="272" y="52" type="curve" smooth="yes"/>
      <point x="245" y="52"/>
      <point x="226" y="77"/>
    </contour>
    <contour>
      <point x="416" y="128" type="curve" smooth="yes"/>
      <point x="416" y="50"/>
      <point x="458" y="-5"/>
      <point x="525" y="-5" type="curve" smooth="yes"/>
      <point x="593" y="-5"/>
      <point x="636" y="50"/>
      <point x="636" y="128" type="curve" smooth="yes"/>
      <point x="636" y="205"/>
      <point x="593" y="262"/>
      <point x="525" y="262" type="curve" smooth="yes"/>
      <point x="458" y="262"/>
      <point x="416" y="205"/>
    </contour>
    <contour>
      <point x="479" y="128" type="curve" smooth="yes"/>
      <point x="479" y="178"/>
      <point x="499" y="205"/>
      <point x="525" y="205" type="curve" smooth="yes"/>
      <point x="552" y="205"/>
      <point x="573" y="178"/>
      <point x="573" y="128" type="curve" smooth="yes"/>
      <point x="573" y="77"/>
      <point x="552" y="52"/>
      <point x="525" y="52" type="curve" smooth="yes"/>
      <point x="499" y="52"/>
      <point x="479" y="77"/>
    </contour>
  </outline>
</glyph>
<glyph name="fraction" format="2">
  <advance width="350"/>
  <unicode hex="2044"/>
  <outline>
    <contour>
      <point x="9" y="0" type="line"/>
      <point x="89" y="0" type="line"/>
      <point x="591" y="700" type="line"/>
      <point x="511" y="700" type="line"/>
    </contour>
  </outline>
</glyph>
<glyph name="newsheqel" format="2">
  <advance width="680"/>
  <unicode hex="20AA"/>
  <outline>
    <contour>
      <point x="270" y="700" type="line" smooth="yes"/>
      <point x="399" y="700"/>
      <point x="454" y="635"/>
      <point x="454" y="518" type="curve" smooth="yes"/>
      <point x="454" y="184" type="line"/>
      <point x="374" y="184" type="line"/>
      <point x="374" y="516" type="line" smooth="yes"/>
      <point x="374" y="583"/>
      <point x="349" y="623"/>
      <point x="269" y="623" type="curve" smooth="yes"/>
      <point x="158" y="623" type="line"/>
      <point x="158" y="0" type="line"/>
      <point x="76" y="0" type="line"/>
      <point x="76" y="700" type="line"/>
    </contour>
    <contour>
      <point x="410" y="0" type="line" smooth="yes"/>
      <point x="281" y="0"/>
      <point x="226" y="66"/>
      <point x="226" y="183" type="curve" smooth="yes"/>
      <point x="226" y="516" type="line"/>
      <point x="306" y="516" type="line"/>
      <point x="306" y="184" type="line" smooth="yes"/>
      <point x="306" y="117"/>
      <point x="331" y="77"/>
      <point x="411" y="77" type="curve" smooth="yes"/>
      <point x="523" y="77" type="line"/>
      <point x="523" y="700" type="line"/>
      <point x="605" y="700" type="line"/>
      <point x="605" y="0" type="line"/>
    </contour>
  </outline>
</glyph>
<glyph name="manat" format="2">
  <advance width="600"/>
  <unicode hex="20BC"/>
  <outline>
    <contour>
      <point x="534" y="0" type="line"/>
      <point x="534" y="427" type="line" smooth="yes"/>
      <point x="534" y="561"/>
      <point x="453" y="670"/>
      <point x="300" y="670" type="curve" smooth="yes"/>
      <point x="147" y="670"/>
      <point x="66" y="561"/>
      <point x="66" y="427" type="curve" smooth="yes"/>
      <point x="66" y="0" type="line"/>
      <point x="150" y="0" type="line"/>
      <point x="150" y="420" type="line" smooth="yes"/>
      <point x="150" y="517"/>
      <point x="197" y="587"/>
      <point x="300" y="587" type="curve" smooth="yes"/>
      <point x="403" y="587"/>
      <point x="450" y="517"/>
      <point x="450" y="420" type="curve" smooth="yes"/>
      <point x="450" y="0" type="line"/>
    </contour>
    <contour>
      <point x="260" y="748" type="line"/>
      <point x="260" y="216" type="line"/>
      <point x="340" y="216" type="line"/>
      <point x="340" y="748" type="line"/>
    </contour>
  </outline>
</glyph>
<glyph name="trademark" format="2">
  <advance width="680"/>
  <unicode hex="2122"/>
  <outline>
    <contour>
      <point x="136" y="678" type="line"/>
      <point x="198" y="678" type="line"/>
      <point x="199" y="357" type="line"/>
      <point x="136" y="357" type="line"/>
    </contour>
    <contour>
      <point x="58" y="643" type="line"/>
      <point x="58" y="700" type="line"/>
      <point x="276" y="700" type="line"/>
      <point x="276" y="643" type="line"/>
    </contour>
    <contour>
      <point x="363" y="658" type="line"/>
      <point x="446" y="447" type="line"/>
      <point x="472" y="447" type="line"/>
      <point x="555" y="657" type="line"/>
      <point x="536" y="657" type="line"/>
      <point x="536" y="357" type="line"/>
      <point x="596" y="357" type="line"/>
      <point x="596" y="700" type="line"/>
      <point x="521" y="700" type="line"/>
      <point x="459" y="539" type="line"/>
      <point x="466" y="530" type="line"/>
      <point x="400" y="700" type="line"/>
      <point x="321" y="700" type="line"/>
      <point x="321" y="357" type="line"/>
      <point x="379" y="357" type="line"/>
      <point x="379" y="658" type="line"/>
    </contour>
  </outline>
</glyph>
<glyph name="onetenth" format="2">
  <advance width="680"/>
  <unicode hex="2152"/>
  <outline>
    <contour>
      <point x="324" y="274" type="line"/>
      <point x="324" y="226"/>
      <point x="311" y="212"/>
      <point x="250" y="212" type="curve"/>
      <point x="250" y="163" type="line"/>
      <point x="356" y="163" type="line"/>
      <point x="318" y="205" type="line"/>
      <point x="318" y="0" type="line"/>
      <point x="383" y="0" type="line"/>
      <point x="383" y="274" type="line"/>
    </contour>
    <contour>
      <point x="523" y="278" type="curve" smooth="yes"/>
      <point x="457" y="278"/>
      <point x="416" y="224"/>
      <point x="416" y="137" type="curve" smooth="yes"/>
      <point x="416" y="50"/>
      <point x="457" y="-5"/>
      <point x="523" y="-5" type="curve" smooth="yes"/>
      <point x="589" y="-5"/>
      <point x="631" y="50"/>
      <point x="631" y="137" type="curve" smooth="yes"/>
      <point x="631" y="224"/>
      <point x="589" y="278"/>
    </contour>
    <contour>
      <point x="523" y="48" type="curve" smooth="yes"/>
      <point x="494" y="48"/>
      <point x="478" y="81"/>
      <point x="478" y="137" type="curve" smooth="yes"/>
      <point x="478" y="193"/>
      <point x="494" y="226"/>
      <point x="523" y="226" type="curve" smooth="yes"/>
      <point x="553" y="226"/>
      <point x="568" y="193"/>
      <point x="568" y="137" type="curve" smooth="yes"/>
      <point x="568" y="81"/>
      <point x="553" y="48"/>
    </contour>
    <contour>
      <point x="136" y="700" type="line"/>
      <point x="136" y="646"/>
      <point x="120" y="629"/>
      <point x="50" y="629" type="curve"/>
      <point x="50" y="580" type="line"/>
      <point x="168" y="580" type="line"/>
      <point x="128" y="621" type="line"/>
      <point x="128" y="386" type="line"/>
      <point x="195" y="386" type="line"/>
      <point x="195" y="700" type="line"/>
    </contour>
    <contour>
      <point x="40" y="0" type="line"/>
      <point x="109" y="0" type="line"/>
      <point x="470" y="700" type="line"/>
      <point x="401" y="700" type="line"/>
    </contour>
  </outline>
</glyph>
<glyph name="greaterequal" format="2">
  <advance width="600"/>
  <unicode hex="2265"/>
  <outline>
    <contour>
      <point x="72" y="0" type="line"/>
      <point x="72" y="76" type="line"/>
      <point x="528" y="76" type="line"/>
      <point x="528" y="0" type="line"/>
    </contour>
    <contour>
      <point x="528" y="428" type="line"/>
      <point x="528" y="342" type="line"/>
      <point x="72" y="151" type="line"/>
      <point x="72" y="236" type="line"/>
      <point x="466" y="400" type="line"/>
      <point x="466" y="371" type="line"/>
      <point x="72" y="535" type="line"/>
      <point x="72" y="619" type="line"/>
    </contour>
  </outline>
</glyph>
<glyph name="circlewhite" format="2">
  <advance width="680"/>
  <unicode hex="25CB"/>
  <outline>
    <contour>
      <point x="340" y="34" type="curve" smooth="yes"/>
      <point x="517" y="34"/>
      <point x="652" y="173"/>
      <point x="652" y="350" type="curve" smooth="yes"/>
      <point x="652" y="527"/>
      <point x="517" y="666"/>
      <point x="340" y="666" type="curve" smooth="yes"/>
      <point x="163" y="666"/>
      <point x="28" y="527"/>
      <point x="28" y="350" type="curve" smooth="yes"/>
      <point x="28" y="173"/>
      <point x="163" y="34"/>
    </contour>
    <contour>
      <point x="340" y="82" type="curve" smooth="yes"/>
      <point x="190" y="82"/>
      <point x="79" y="196"/>
      <point x="79" y="350" type="curve" smooth="yes"/>
      <point x="79" y="504"/>
      <point x="190" y="618"/>
      <point x="340" y="618" type="curve" smooth="yes"/>
      <point x="490" y="618"/>
      <point x="601" y="504"/>
      <point x="601" y="350" type="curve" smooth="yes"/>
      <point x="601" y="196"/>
      <point x="490" y="82"/>
    </contour>
  </outline>
</glyph>
<glyph name="circleblack" format="2">
  <advance width="680"/>
  <unicode hex="25CF"/>
  <outline>
    <contour>
      <point x="28" y="350" type="curve" smooth="yes"/>
      <point x="28" y="173"/>
      <point x="163" y="34"/>
      <point x="340" y="34" type="curve" smooth="yes"/>
      <point x="517" y="34"/>
      <point x="652" y="173"/>
      <point x="652" y="350" type="curve" smooth="yes"/>
      <point x="652" y="527"/>
      <point x="517" y="666"/>
      <point x="340" y="666" type="curve" smooth="yes"/>
      <point x="163" y="666"/>
      <point x="28" y="527"/>
    </contour>
  </outline>
</glyph>
<glyph name="onesanscircled" format="2">
  <advance width="680"/>
  <unicode hex="2780"/>
  <outline>
    <contour>
      <point x="327" y="507" type="line"/>
      <point x="327" y="453"/>
      <point x="312" y="436"/>
      <point x="242" y="436" type="curve"/>
      <point x="242" y="387" type="line"/>
      <point x="320" y="387" type="line"/>
      <point x="320" y="193" type="line"/>
      <point x="387" y="193" type="line"/>
      <point x="387" y="507" type="line"/>
    </contour>
    <component base="circlewhite" identifier="A92FB1F6"/>
  </outline>
</glyph>
<glyph name="twosanscircled" format="2">
  <advance width="680"/>
  <unicode hex="2781"/>
  <outline>
    <contour>
      <point x="455" y="193" type="line"/>
      <point x="455" y="250" type="line"/>
      <point x="323" y="250" type="line"/>
      <point x="404" y="313"/>
      <point x="453" y="354"/>
      <point x="453" y="411" type="curve" smooth="yes"/>
      <point x="453" y="458"/>
      <point x="422" y="512"/>
      <point x="342" y="512" type="curve" smooth="yes"/>
      <point x="265" y="512"/>
      <point x="229" y="463"/>
      <point x="229" y="416" type="curve" smooth="yes"/>
      <point x="229" y="401"/>
      <point x="233" y="388"/>
      <point x="240" y="376" type="curve"/>
      <point x="303" y="383" type="line"/>
      <point x="297" y="393"/>
      <point x="294" y="403"/>
      <point x="294" y="412" type="curve" smooth="yes"/>
      <point x="294" y="436"/>
      <point x="311" y="457"/>
      <point x="340" y="457" type="curve" smooth="yes"/>
      <point x="368" y="457"/>
      <point x="386" y="438"/>
      <point x="386" y="409" type="curve" smooth="yes"/>
      <point x="386" y="366"/>
      <point x="342" y="339"/>
      <point x="232" y="248" type="curve"/>
      <point x="232" y="193" type="line"/>
    </contour>
    <component base="circlewhite" identifier="566504D8"/>
  </outline>
</glyph>
<glyph name="threesanscircled" format="2">
  <advance width="680"/>
  <unicode hex="2782"/>
  <outline>
    <contour>
      <point x="225" y="295" type="line"/>
      <point x="220" y="224"/>
      <point x="273" y="189"/>
      <point x="342" y="189" type="curve" smooth="yes"/>
      <point x="414" y="189"/>
      <point x="459" y="228"/>
      <point x="459" y="285" type="curve" smooth="yes"/>
      <point x="459" y="323"/>
      <point x="438" y="348"/>
      <point x="403" y="357" type="curve"/>
      <point x="428" y="366"/>
      <point x="451" y="384"/>
      <point x="451" y="422" type="curve" smooth="yes"/>
      <point x="451" y="470"/>
      <point x="414" y="512"/>
      <point x="343" y="512" type="curve" smooth="yes"/>
      <point x="275" y="512"/>
      <point x="222" y="473"/>
      <point x="228" y="407" type="curve"/>
      <point x="295" y="411" type="line"/>
      <point x="291" y="439"/>
      <point x="312" y="459"/>
      <point x="341" y="459" type="curve" smooth="yes"/>
      <point x="370" y="459"/>
      <point x="385" y="439"/>
      <point x="385" y="419" type="curve" smooth="yes"/>
      <point x="385" y="396"/>
      <point x="368" y="381"/>
      <point x="341" y="381" type="curve" smooth="yes"/>
      <point x="317" y="381" type="line"/>
      <point x="317" y="329" type="line"/>
      <point x="341" y="329" type="line" smooth="yes"/>
      <point x="375" y="329"/>
      <point x="393" y="312"/>
      <point x="393" y="287" type="curve" smooth="yes"/>
      <point x="393" y="260"/>
      <point x="374" y="242"/>
      <point x="342" y="242" type="curve" smooth="yes"/>
      <point x="307" y="242"/>
      <point x="287" y="264"/>
      <point x="291" y="291" type="curve"/>
    </contour>
    <component base="circlewhite" identifier="59D55B03"/>
  </outline>
</glyph>
<glyph name="foursanscircled" format="2">
  <advance width="680"/>
  <unicode hex="2783"/>
  <outline>
    <contour>
      <point x="409" y="507" type="line"/>
      <point x="339" y="507" type="line"/>
      <point x="200" y="319" type="line"/>
      <point x="200" y="265" type="line"/>
      <point x="345" y="265" type="line"/>
      <point x="345" y="193" type="line"/>
      <point x="409" y="193" type="line"/>
      <point x="409" y="265" type="line"/>
      <point x="462" y="265" type="line"/>
      <point x="462" y="318" type="line"/>
      <point x="409" y="318" type="line"/>
    </contour>
    <contour>
      <point x="264" y="318" type="line"/>
      <point x="345" y="427" type="line"/>
      <point x="345" y="318" type="line"/>
    </contour>
    <component base="circlewhite" identifier="54C5879E"/>
  </outline>
</glyph>
<glyph name="fivesanscircled" format="2">
  <advance width="680"/>
  <unicode hex="2784"/>
  <outline>
    <contour>
      <point x="222" y="294" type="line"/>
      <point x="224" y="227"/>
      <point x="270" y="189"/>
      <point x="339" y="189" type="curve" smooth="yes"/>
      <point x="410" y="189"/>
      <point x="452" y="232"/>
      <point x="452" y="299" type="curve" smooth="yes"/>
      <point x="452" y="360"/>
      <point x="418" y="406"/>
      <point x="358" y="406" type="curve" smooth="yes"/>
      <point x="333" y="406"/>
      <point x="313" y="398"/>
      <point x="299" y="385" type="curve"/>
      <point x="304" y="451" type="line"/>
      <point x="442" y="451" type="line"/>
      <point x="442" y="507" type="line"/>
      <point x="249" y="507" type="line"/>
      <point x="234" y="328" type="line"/>
      <point x="296" y="323" type="line"/>
      <point x="304" y="343"/>
      <point x="319" y="356"/>
      <point x="340" y="356" type="curve" smooth="yes"/>
      <point x="368" y="356"/>
      <point x="385" y="333"/>
      <point x="385" y="299" type="curve" smooth="yes"/>
      <point x="385" y="263"/>
      <point x="366" y="241"/>
      <point x="338" y="241" type="curve" smooth="yes"/>
      <point x="311" y="241"/>
      <point x="294" y="260"/>
      <point x="294" y="286" type="curve"/>
    </contour>
    <component base="circlewhite" identifier="042DFC90"/>
  </outline>
</glyph>
<glyph name="sixsanscircled" format="2">
  <advance width="680"/>
  <unicode hex="2785"/>
  <outline>
    <contour>
      <point x="335" y="189" type="curve" smooth="yes"/>
      <point x="409" y="189"/>
      <point x="449" y="239"/>
      <point x="449" y="298" type="curve" smooth="yes"/>
      <point x="449" y="362"/>
      <point x="407" y="402"/>
      <point x="353" y="402" type="curve" smooth="yes"/>
      <point x="325" y="402"/>
      <point x="302" y="392"/>
      <point x="286" y="374" type="curve"/>
      <point x="290" y="429"/>
      <point x="316" y="458"/>
      <point x="345" y="458" type="curve" smooth="yes"/>
      <point x="365" y="458"/>
      <point x="379" y="445"/>
      <point x="379" y="424" type="curve"/>
      <point x="444" y="417" type="line"/>
      <point x="442" y="472"/>
      <point x="409" y="512"/>
      <point x="346" y="512" type="curve" smooth="yes"/>
      <point x="269" y="512"/>
      <point x="217" y="445"/>
      <point x="217" y="341" type="curve" smooth="yes"/>
      <point x="217" y="293"/>
      <point x="224" y="260"/>
      <point x="241" y="235" type="curve" smooth="yes"/>
      <point x="262" y="205"/>
      <point x="293" y="189"/>
    </contour>
    <contour>
      <point x="335" y="240" type="curve" smooth="yes"/>
      <point x="305" y="240"/>
      <point x="287" y="265"/>
      <point x="287" y="296" type="curve" smooth="yes"/>
      <point x="287" y="327"/>
      <point x="305" y="352"/>
      <point x="335" y="352" type="curve" smooth="yes"/>
      <point x="365" y="352"/>
      <point x="383" y="327"/>
      <point x="383" y="296" type="curve" smooth="yes"/>
      <point x="383" y="265"/>
      <point x="365" y="240"/>
    </contour>
    <component base="circlewhite" identifier="008B67D0"/>
  </outline>
</glyph>
<glyph name="sevensanscircled" format="2">
  <advance width="680"/>
  <unicode hex="2786"/>
  <outline>
    <contour>
      <point x="230" y="507" type="line"/>
      <point x="230" y="390" type="line"/>
      <point x="293" y="390" type="line"/>
      <point x="293" y="452" type="line"/>
      <point x="390" y="452" type="line"/>
      <point x="338" y="371"/>
      <point x="290" y="286"/>
      <point x="287" y="193" type="curve"/>
      <point x="357" y="193" type="line"/>
      <point x="364" y="298"/>
      <point x="414" y="385"/>
      <point x="464" y="471" type="curve"/>
      <point x="464" y="507" type="line"/>
    </contour>
    <component base="circlewhite" identifier="F1716B67"/>
  </outline>
</glyph>
<glyph name="eightsanscircled" format="2">
  <advance width="680"/>
  <unicode hex="2787"/>
  <outline>
    <contour>
      <point x="221" y="285" type="curve" smooth="yes"/>
      <point x="221" y="230"/>
      <point x="269" y="189"/>
      <point x="340" y="189" type="curve" smooth="yes"/>
      <point x="411" y="189"/>
      <point x="459" y="230"/>
      <point x="459" y="285" type="curve" smooth="yes"/>
      <point x="459" y="324"/>
      <point x="435" y="350"/>
      <point x="402" y="361" type="curve"/>
      <point x="429" y="370"/>
      <point x="449" y="391"/>
      <point x="449" y="426" type="curve" smooth="yes"/>
      <point x="449" y="475"/>
      <point x="408" y="512"/>
      <point x="340" y="512" type="curve" smooth="yes"/>
      <point x="272" y="512"/>
      <point x="231" y="475"/>
      <point x="231" y="426" type="curve" smooth="yes"/>
      <point x="231" y="391"/>
      <point x="251" y="370"/>
      <point x="278" y="361" type="curve"/>
      <point x="245" y="350"/>
      <point x="221" y="324"/>
    </contour>
    <contour>
      <point x="393" y="288" type="curve" smooth="yes"/>
      <point x="393" y="259"/>
      <point x="372" y="239"/>
      <point x="340" y="239" type="curve" smooth="yes"/>
      <point x="308" y="239"/>
      <point x="287" y="259"/>
      <point x="287" y="288" type="curve" smooth="yes"/>
      <point x="287" y="317"/>
      <point x="308" y="335"/>
      <point x="340" y="335" type="curve" smooth="yes"/>
      <point x="372" y="335"/>
      <point x="393" y="317"/>
    </contour>
    <contour>
      <point x="386" y="423" type="curve" smooth="yes"/>
      <point x="386" y="400"/>
      <point x="367" y="384"/>
      <point x="340" y="384" type="curve" smooth="yes"/>
      <point x="313" y="384"/>
      <point x="294" y="400"/>
      <point x="294" y="423" type="curve" smooth="yes"/>
      <point x="294" y="446"/>
      <point x="313" y="461"/>
      <point x="340" y="461" type="curve" smooth="yes"/>
      <point x="367" y="461"/>
      <point x="386" y="446"/>
    </contour>
    <component base="circlewhite" identifier="CE8B21CE"/>
  </outline>
</glyph>
<glyph name="ninesanscircled" format="2">
  <advance width="680"/>
  <unicode hex="2788"/>
  <outline>
    <contour>
      <point x="336" y="512" type="curve" smooth="yes"/>
      <point x="261" y="512"/>
      <point x="222" y="463"/>
      <point x="222" y="402" type="curve" smooth="yes"/>
      <point x="222" y="338"/>
      <point x="266" y="299"/>
      <point x="321" y="299" type="curve" smooth="yes"/>
      <point x="348" y="299"/>
      <point x="371" y="308"/>
      <point x="387" y="326" type="curve"/>
      <point x="384" y="277"/>
      <point x="370" y="239"/>
      <point x="334" y="239" type="curve" smooth="yes"/>
      <point x="311" y="239"/>
      <point x="296" y="253"/>
      <point x="294" y="278" type="curve"/>
      <point x="223" y="288" type="line"/>
      <point x="225" y="228"/>
      <point x="265" y="189"/>
      <point x="332" y="189" type="curve" smooth="yes"/>
      <point x="417" y="189"/>
      <point x="454" y="247"/>
      <point x="454" y="357" type="curve" smooth="yes"/>
      <point x="454" y="408"/>
      <point x="448" y="439"/>
      <point x="430" y="465" type="curve" smooth="yes"/>
      <point x="411" y="495"/>
      <point x="377" y="512"/>
    </contour>
    <contour>
      <point x="336" y="349" type="curve" smooth="yes"/>
      <point x="310" y="349"/>
      <point x="288" y="369"/>
      <point x="288" y="404" type="curve" smooth="yes"/>
      <point x="288" y="440"/>
      <point x="310" y="460"/>
      <point x="336" y="460" type="curve" smooth="yes"/>
      <point x="363" y="460"/>
      <point x="384" y="440"/>
      <point x="384" y="404" type="curve" smooth="yes"/>
      <point x="384" y="369"/>
      <point x="363" y="349"/>
    </contour>
    <component base="circlewhite" identifier="6C808E89"/>
  </outline>
</glyph>
<glyph name="tensanscircled" format="2">
  <advance width="680"/>
  <unicode hex="2789"/>
  <outline>
    <contour>
      <point x="220" y="507" type="line"/>
      <point x="220" y="453"/>
      <point x="209" y="436"/>
      <point x="154" y="436" type="curve"/>
      <point x="154" y="384" type="line"/>
      <point x="216" y="384" type="line"/>
      <point x="216" y="193" type="line"/>
      <point x="275" y="193" type="line"/>
      <point x="275" y="507" type="line"/>
    </contour>
    <contour>
      <point x="408" y="512" type="curve" smooth="yes"/>
      <point x="343" y="512"/>
      <point x="301" y="455"/>
      <point x="301" y="350" type="curve" smooth="yes"/>
      <point x="301" y="245"/>
      <point x="343" y="189"/>
      <point x="408" y="189" type="curve" smooth="yes"/>
      <point x="474" y="189"/>
      <point x="515" y="245"/>
      <point x="515" y="350" type="curve" smooth="yes"/>
      <point x="515" y="455"/>
      <point x="474" y="512"/>
    </contour>
    <contour>
      <point x="408" y="247" type="curve" smooth="yes"/>
      <point x="379" y="247"/>
      <point x="365" y="286"/>
      <point x="365" y="350" type="curve" smooth="yes"/>
      <point x="365" y="415"/>
      <point x="379" y="453"/>
      <point x="408" y="453" type="curve" smooth="yes"/>
      <point x="437" y="453"/>
      <point x="452" y="415"/>
      <point x="452" y="350" type="curve" smooth="yes"/>
      <point x="452" y="286"/>
      <point x="437" y="247"/>
    </contour>
    <component base="circlewhite" identifier="F1515C93"/>
  </outline>
</glyph>
<glyph name="onesansnegativecircled" format="2">
  <advance width="680"/>
  <unicode hex="278A"/>
  <outline>
    <contour>
      <point x="331" y="507" type="curve"/>
      <point x="384" y="507" type="line"/>
      <point x="384" y="193" type="line"/>
      <point x="324" y="193" type="line"/>
      <point x="324" y="393" type="line"/>
      <point x="245" y="393" type="line"/>
      <point x="245" y="436" type="line"/>
      <point x="316" y="436"/>
      <point x="331" y="453"/>
    </contour>
    <component base="circleblack" identifier="FECFBBEC"/>
  </outline>
</glyph>
<glyph name="twosansnegativecircled" format="2">
  <advance width="680"/>
  <unicode hex="278B"/>
  <outline>
    <contour>
      <point x="452" y="193" type="line"/>
      <point x="235" y="193" type="line"/>
      <point x="235" y="242" type="line"/>
      <point x="344" y="336"/>
      <point x="390" y="363"/>
      <point x="390" y="409" type="curve" smooth="yes"/>
      <point x="390" y="441"/>
      <point x="370" y="461"/>
      <point x="340" y="461" type="curve" smooth="yes"/>
      <point x="309" y="461"/>
      <point x="290" y="438"/>
      <point x="290" y="413" type="curve" smooth="yes"/>
      <point x="290" y="404"/>
      <point x="293" y="394"/>
      <point x="299" y="384" type="curve"/>
      <point x="243" y="377" type="line"/>
      <point x="237" y="389"/>
      <point x="233" y="401"/>
      <point x="233" y="417" type="curve" smooth="yes"/>
      <point x="233" y="463"/>
      <point x="268" y="512"/>
      <point x="341" y="512" type="curve" smooth="yes"/>
      <point x="419" y="512"/>
      <point x="449" y="459"/>
      <point x="449" y="411" type="curve" smooth="yes"/>
      <point x="449" y="354"/>
      <point x="399" y="312"/>
      <point x="316" y="245" type="curve"/>
      <point x="452" y="245" type="line"/>
    </contour>
    <component base="circleblack" identifier="5FBE12A1"/>
  </outline>
</glyph>
<glyph name="threesansnegativecircled" format="2">
  <advance width="680"/>
  <unicode hex="278C"/>
  <outline>
    <contour>
      <point x="228" y="293" type="curve"/>
      <point x="288" y="289" type="line"/>
      <point x="284" y="261"/>
      <point x="304" y="237"/>
      <point x="342" y="237" type="curve" smooth="yes"/>
      <point x="376" y="237"/>
      <point x="397" y="257"/>
      <point x="397" y="285" type="curve" smooth="yes"/>
      <point x="397" y="311"/>
      <point x="378" y="331"/>
      <point x="341" y="331" type="curve" smooth="yes"/>
      <point x="317" y="331" type="line"/>
      <point x="317" y="379" type="line"/>
      <point x="341" y="379" type="line" smooth="yes"/>
      <point x="370" y="379"/>
      <point x="389" y="396"/>
      <point x="389" y="420" type="curve" smooth="yes"/>
      <point x="389" y="441"/>
      <point x="374" y="464"/>
      <point x="342" y="464" type="curve" smooth="yes"/>
      <point x="310" y="464"/>
      <point x="287" y="443"/>
      <point x="291" y="413" type="curve"/>
      <point x="231" y="409" type="line"/>
      <point x="226" y="474"/>
      <point x="278" y="512"/>
      <point x="343" y="512" type="curve" smooth="yes"/>
      <point x="409" y="512"/>
      <point x="448" y="470"/>
      <point x="448" y="422" type="curve" smooth="yes"/>
      <point x="448" y="385"/>
      <point x="425" y="366"/>
      <point x="400" y="357" type="curve"/>
      <point x="435" y="348"/>
      <point x="456" y="322"/>
      <point x="456" y="285" type="curve" smooth="yes"/>
      <point x="456" y="227"/>
      <point x="410" y="189"/>
      <point x="342" y="189" type="curve" smooth="yes"/>
      <point x="275" y="189"/>
      <point x="223" y="223"/>
    </contour>
    <component base="circleblack" identifier="1AAB3F9B"/>
  </outline>
</glyph>
<glyph name="foursansnegativecircled" format="2">
  <advance width="680"/>
  <unicode hex="278D"/>
  <outline>
    <contour>
      <point x="406" y="507" type="line"/>
      <point x="406" y="315" type="line"/>
      <point x="459" y="315" type="line"/>
      <point x="459" y="266" type="line"/>
      <point x="406" y="266" type="line"/>
      <point x="406" y="193" type="line"/>
      <point x="347" y="193" type="line"/>
      <point x="347" y="266" type="line"/>
      <point x="202" y="266" type="line"/>
      <point x="202" y="317" type="line"/>
      <point x="343" y="507" type="line"/>
    </contour>
    <contour>
      <point x="261" y="315" type="line"/>
      <point x="347" y="315" type="line"/>
      <point x="347" y="430" type="line"/>
    </contour>
    <component base="circleblack" identifier="66F113BA"/>
  </outline>
</glyph>
<glyph name="fivesansnegativecircled" format="2">
  <advance width="680"/>
  <unicode hex="278E"/>
  <outline>
    <contour>
      <point x="225" y="291" type="curve"/>
      <point x="290" y="284" type="line"/>
      <point x="291" y="257"/>
      <point x="309" y="236"/>
      <point x="338" y="236" type="curve" smooth="yes"/>
      <point x="368" y="236"/>
      <point x="389" y="259"/>
      <point x="389" y="299" type="curve" smooth="yes"/>
      <point x="389" y="337"/>
      <point x="370" y="361"/>
      <point x="340" y="361" type="curve" smooth="yes"/>
      <point x="317" y="361"/>
      <point x="300" y="346"/>
      <point x="292" y="324" type="curve"/>
      <point x="238" y="328" type="line"/>
      <point x="253" y="507" type="line"/>
      <point x="439" y="507" type="line"/>
      <point x="439" y="457" type="line"/>
      <point x="301" y="457" type="line"/>
      <point x="296" y="384" type="line"/>
      <point x="310" y="397"/>
      <point x="330" y="406"/>
      <point x="355" y="406" type="curve" smooth="yes"/>
      <point x="414" y="406"/>
      <point x="448" y="360"/>
      <point x="448" y="299" type="curve" smooth="yes"/>
      <point x="448" y="232"/>
      <point x="406" y="189"/>
      <point x="338" y="189" type="curve" smooth="yes"/>
      <point x="272" y="189"/>
      <point x="228" y="227"/>
    </contour>
    <component base="circleblack" identifier="D3EBC7F9"/>
  </outline>
</glyph>
<glyph name="sixsansnegativecircled" format="2">
  <advance width="680"/>
  <unicode hex="278F"/>
  <outline>
    <contour>
      <point x="335" y="189" type="curve" smooth="yes"/>
      <point x="296" y="189"/>
      <point x="264" y="204"/>
      <point x="244" y="233" type="curve" smooth="yes"/>
      <point x="228" y="260"/>
      <point x="220" y="291"/>
      <point x="220" y="341" type="curve" smooth="yes"/>
      <point x="220" y="445"/>
      <point x="272" y="512"/>
      <point x="346" y="512" type="curve" smooth="yes"/>
      <point x="408" y="512"/>
      <point x="439" y="472"/>
      <point x="441" y="420" type="curve"/>
      <point x="383" y="426" type="line"/>
      <point x="383" y="449"/>
      <point x="368" y="463"/>
      <point x="345" y="463" type="curve" smooth="yes"/>
      <point x="314" y="463"/>
      <point x="285" y="430"/>
      <point x="281" y="371" type="curve"/>
      <point x="298" y="391"/>
      <point x="322" y="402"/>
      <point x="350" y="402" type="curve" smooth="yes"/>
      <point x="403" y="402"/>
      <point x="446" y="362"/>
      <point x="446" y="298" type="curve" smooth="yes"/>
      <point x="446" y="239"/>
      <point x="406" y="189"/>
    </contour>
    <contour>
      <point x="335" y="236" type="curve" smooth="yes"/>
      <point x="368" y="236"/>
      <point x="387" y="263"/>
      <point x="387" y="296" type="curve" smooth="yes"/>
      <point x="387" y="329"/>
      <point x="368" y="356"/>
      <point x="335" y="356" type="curve" smooth="yes"/>
      <point x="302" y="356"/>
      <point x="283" y="329"/>
      <point x="283" y="296" type="curve" smooth="yes"/>
      <point x="283" y="263"/>
      <point x="302" y="236"/>
    </contour>
    <component base="circleblack" identifier="A44F0CBC"/>
  </outline>
</glyph>
<glyph name="sevensansnegativecircled" format="2">
  <advance width="680"/>
  <unicode hex="2790"/>
  <outline>
    <contour>
      <point x="234" y="507" type="line"/>
      <point x="462" y="507" type="line"/>
      <point x="462" y="477" type="line"/>
      <point x="413" y="389"/>
      <point x="358" y="297"/>
      <point x="351" y="193" type="curve"/>
      <point x="289" y="193" type="line"/>
      <point x="292" y="286"/>
      <point x="343" y="375"/>
      <point x="395" y="457" type="curve"/>
      <point x="290" y="457" type="line"/>
      <point x="290" y="393" type="line"/>
      <point x="234" y="393" type="line"/>
    </contour>
    <component base="circleblack" identifier="179A1F8F"/>
  </outline>
</glyph>
<glyph name="eightsansnegativecircled" format="2">
  <advance width="680"/>
  <unicode hex="2791"/>
  <outline>
    <contour>
      <point x="225" y="285" type="curve" smooth="yes"/>
      <point x="225" y="324"/>
      <point x="248" y="350"/>
      <point x="281" y="361" type="curve"/>
      <point x="254" y="370"/>
      <point x="234" y="391"/>
      <point x="234" y="426" type="curve" smooth="yes"/>
      <point x="234" y="475"/>
      <point x="275" y="512"/>
      <point x="340" y="512" type="curve" smooth="yes"/>
      <point x="405" y="512"/>
      <point x="446" y="475"/>
      <point x="446" y="426" type="curve" smooth="yes"/>
      <point x="446" y="391"/>
      <point x="426" y="370"/>
      <point x="399" y="361" type="curve"/>
      <point x="432" y="350"/>
      <point x="455" y="324"/>
      <point x="455" y="285" type="curve" smooth="yes"/>
      <point x="455" y="229"/>
      <point x="408" y="189"/>
      <point x="340" y="189" type="curve" smooth="yes"/>
      <point x="272" y="189"/>
      <point x="225" y="229"/>
    </contour>
    <contour>
      <point x="340" y="382" type="curve" smooth="yes"/>
      <point x="369" y="382"/>
      <point x="390" y="399"/>
      <point x="390" y="424" type="curve" smooth="yes"/>
      <point x="390" y="449"/>
      <point x="369" y="465"/>
      <point x="340" y="465" type="curve" smooth="yes"/>
      <point x="311" y="465"/>
      <point x="290" y="449"/>
      <point x="290" y="424" type="curve" smooth="yes"/>
      <point x="290" y="399"/>
      <point x="311" y="382"/>
    </contour>
    <contour>
      <point x="340" y="337" type="curve" smooth="yes"/>
      <point x="306" y="337"/>
      <point x="283" y="318"/>
      <point x="283" y="287" type="curve" smooth="yes"/>
      <point x="283" y="256"/>
      <point x="306" y="235"/>
      <point x="340" y="235" type="curve" smooth="yes"/>
      <point x="374" y="235"/>
      <point x="397" y="256"/>
      <point x="397" y="287" type="curve" smooth="yes"/>
      <point x="397" y="318"/>
      <point x="374" y="337"/>
    </contour>
    <component base="circleblack" identifier="2E847C66"/>
  </outline>
</glyph>
<glyph name="ninesansnegativecircled" format="2">
  <advance width="680"/>
  <unicode hex="2792"/>
  <outline>
    <contour>
      <point x="336" y="512" type="curve" smooth="yes"/>
      <point x="375" y="512"/>
      <point x="408" y="496"/>
      <point x="428" y="465" type="curve" smooth="yes"/>
      <point x="445" y="439"/>
      <point x="451" y="408"/>
      <point x="451" y="357" type="curve" smooth="yes"/>
      <point x="451" y="246"/>
      <point x="414" y="189"/>
      <point x="332" y="189" type="curve" smooth="yes"/>
      <point x="265" y="189"/>
      <point x="228" y="228"/>
      <point x="226" y="285" type="curve"/>
      <point x="290" y="275" type="line"/>
      <point x="292" y="249"/>
      <point x="309" y="235"/>
      <point x="333" y="235" type="curve" smooth="yes"/>
      <point x="373" y="235"/>
      <point x="388" y="273"/>
      <point x="391" y="327" type="curve"/>
      <point x="375" y="308"/>
      <point x="351" y="298"/>
      <point x="325" y="298" type="curve" smooth="yes"/>
      <point x="271" y="298"/>
      <point x="225" y="339"/>
      <point x="225" y="403" type="curve" smooth="yes"/>
      <point x="225" y="462"/>
      <point x="264" y="512"/>
    </contour>
    <contour>
      <point x="336" y="345" type="curve" smooth="yes"/>
      <point x="364" y="345"/>
      <point x="388" y="366"/>
      <point x="388" y="405" type="curve" smooth="yes"/>
      <point x="388" y="443"/>
      <point x="364" y="464"/>
      <point x="336" y="464" type="curve" smooth="yes"/>
      <point x="308" y="464"/>
      <point x="284" y="443"/>
      <point x="284" y="405" type="curve" smooth="yes"/>
      <point x="284" y="366"/>
      <point x="308" y="345"/>
    </contour>
    <component base="circleblack" identifier="D0203F95"/>
  </outline>
</glyph>
<glyph name="aogonek.alt1" format="2">
  <advance width="600"/>
  <outline>
    <contour>
      <point x="452" y="-196" type="curve" smooth="yes"/>
      <point x="473" y="-196"/>
      <point x="497" y="-193"/>
      <point x="520" y="-186" type="curve"/>
      <point x="520" y="-125" type="line"/>
      <point x="500" y="-130"/>
      <point x="484" y="-133"/>
      <point x="466" y="-133" type="curve" smooth="yes"/>
      <point x="436" y="-133"/>
      <point x="419" y="-123"/>
      <point x="419" y="-100" type="curve" smooth="yes"/>
      <point x="419" y="-64"/>
      <point x="457" y="-30"/>
      <point x="507" y="0" type="curve"/>
      <point x="424" y="0" type="line"/>
      <point x="384" y="-24"/>
      <point x="344" y="-59"/>
      <point x="344" y="-113" type="curve" smooth="yes"/>
      <point x="344" y="-163"/>
      <point x="377" y="-196"/>
    </contour>
    <contour>
      <point x="411" y="93" type="line"/>
      <point x="411" y="55"/>
      <point x="414" y="32"/>
      <point x="423" y="0" type="curve"/>
      <point x="507" y="0" type="line"/>
      <point x="497" y="30"/>
      <point x="493" y="56"/>
      <point x="493" y="89" type="curve" smooth="yes"/>
      <point x="493" y="345" type="line" smooth="yes"/>
      <point x="493" y="445"/>
      <point x="426" y="502"/>
      <point x="299" y="502" type="curve" smooth="yes"/>
      <point x="153" y="502"/>
      <point x="100" y="424"/>
      <point x="95" y="350" type="curve"/>
      <point x="188" y="335" type="line"/>
      <point x="191" y="382"/>
      <point x="207" y="429"/>
      <point x="298" y="429" type="curve" smooth="yes"/>
      <point x="377" y="429"/>
      <point x="407" y="396"/>
      <point x="407" y="341" type="curve" smooth="yes"/>
      <point x="407" y="177" type="line" smooth="yes"/>
      <point x="407" y="114"/>
      <point x="347" y="59"/>
      <point x="260" y="59" type="curve" smooth="yes"/>
      <point x="198" y="59"/>
      <point x="165" y="86"/>
      <point x="165" y="136" type="curve" smooth="yes"/>
      <point x="165" y="186"/>
      <point x="196" y="208"/>
      <point x="257" y="216" type="curve" smooth="yes"/>
      <point x="440" y="239" type="line"/>
      <point x="440" y="306" type="line"/>
      <point x="243" y="282" type="line" smooth="yes"/>
      <point x="143" y="270"/>
      <point x="75" y="226"/>
      <point x="75" y="136" type="curve" smooth="yes"/>
      <point x="75" y="44"/>
      <point x="144" y="-12"/>
      <point x="250" y="-12" type="curve" smooth="yes"/>
      <point x="342" y="-12"/>
      <point x="403" y="28"/>
      <point x="436" y="93" type="curve"/>
    </contour>
  </outline>
</glyph>
<glyph name="brokenbar.uc" format="2">
  <advance width="350"/>
  <outline>
    <contour>
      <point x="134" y="745" type="line"/>
      <point x="134" y="392" type="line"/>
      <point x="217" y="392" type="line"/>
      <point x="217" y="745" type="line"/>
    </contour>
    <contour>
      <point x="134" y="270" type="line"/>
      <point x="134" y="-83" type="line"/>
      <point x="217" y="-83" type="line"/>
      <point x="217" y="270" type="line"/>
    </contour>
  </outline>
</glyph>
<glyph name="bullet.medium" format="2">
  <advance width="600"/>
  <outline>
    <contour>
      <point x="300" y="528" type="curve" smooth="yes"/>
      <point x="180" y="528"/>
      <point x="81" y="429"/>
      <point x="81" y="309" type="curve" smooth="yes"/>
      <point x="81" y="189"/>
      <point x="180" y="90"/>
      <point x="300" y="90" type="curve" smooth="yes"/>
      <point x="420" y="90"/>
      <point x="519" y="189"/>
      <point x="519" y="309" type="curve" smooth="yes"/>
      <point x="519" y="429"/>
      <point x="420" y="528"/>
    </contour>
  </outline>
</glyph>
<glyph name="caroncmb.alt" format="2">
  <advance width="600"/>
  <outline>
    <contour>
      <point x="281" y="700" type="line"/>
      <point x="273" y="550" type="line"/>
      <point x="337" y="550" type="line"/>
      <point x="363" y="700" type="line"/>
    </contour>
  </outline>
</glyph>
<glyph name="circumflexcmb.uc" format="2">
  <advance width="600"/>
  <outline>
    <contour>
      <point x="255" y="892" type="line"/>
      <point x="144" y="771" type="line"/>
      <point x="218" y="771" type="line"/>
      <point x="326" y="855" type="line"/>
      <point x="274" y="855" type="line"/>
      <point x="382" y="771" type="line"/>
      <point x="456" y="771" type="line"/>
      <point x="345" y="892" type="line"/>
    </contour>
  </outline>
</glyph>
<glyph name="comma.tab" format="2">
  <advance width="600"/>
  <outline>
    <contour>
      <point x="236" y="149" type="line"/>
      <point x="236" y="0" type="line"/>
      <point x="299" y="0" type="line"/>
      <point x="299" y="-12" type="line" smooth="yes"/>
      <point x="299" y="-60"/>
      <point x="268" y="-90"/>
      <point x="215" y="-90" type="curve"/>
      <point x="215" y="-146" type="line"/>
      <point x="332" y="-146"/>
      <point x="362" y="-62"/>
      <point x="362" y="-12" type="curve" smooth="yes"/>
      <point x="362" y="149" type="line"/>
    </contour>
  </outline>
</glyph>
<glyph name="eight.den" format="2">
  <advance width="350"/>
  <outline>
    <contour>
      <point x="140" y="203" type="curve" smooth="yes"/>
      <point x="112" y="203"/>
      <point x="92" y="220"/>
      <point x="92" y="243" type="curve" smooth="yes"/>
      <point x="92" y="267"/>
      <point x="112" y="284"/>
      <point x="140" y="284" type="curve" smooth="yes"/>
      <point x="168" y="284"/>
      <point x="188" y="267"/>
      <point x="188" y="243" type="curve" smooth="yes"/>
      <point x="188" y="220"/>
      <point x="168" y="203"/>
    </contour>
    <contour>
      <point x="90" y="173" type="curve"/>
      <point x="90" y="182" type="line"/>
      <point x="47" y="173"/>
      <point x="13" y="145"/>
      <point x="13" y="97" type="curve" smooth="yes"/>
      <point x="13" y="38"/>
      <point x="63" y="-5"/>
      <point x="140" y="-5" type="curve" smooth="yes"/>
      <point x="217" y="-5"/>
      <point x="267" y="38"/>
      <point x="267" y="97" type="curve" smooth="yes"/>
      <point x="267" y="145"/>
      <point x="233" y="173"/>
      <point x="190" y="182" type="curve"/>
      <point x="190" y="173" type="line"/>
      <point x="226" y="180"/>
      <point x="257" y="204"/>
      <point x="257" y="247" type="curve" smooth="yes"/>
      <point x="257" y="298"/>
      <point x="213" y="338"/>
      <point x="140" y="338" type="curve" smooth="yes"/>
      <point x="67" y="338"/>
      <point x="23" y="298"/>
      <point x="23" y="247" type="curve" smooth="yes"/>
      <point x="23" y="204"/>
      <point x="54" y="180"/>
    </contour>
    <contour>
      <point x="140" y="150" type="curve" smooth="yes"/>
      <point x="173" y="150"/>
      <point x="196" y="131"/>
      <point x="196" y="101" type="curve" smooth="yes"/>
      <point x="196" y="70"/>
      <point x="173" y="49"/>
      <point x="140" y="49" type="curve" smooth="yes"/>
      <point x="107" y="49"/>
      <point x="84" y="70"/>
      <point x="84" y="101" type="curve" smooth="yes"/>
      <point x="84" y="131"/>
      <point x="107" y="150"/>
    </contour>
  </outline>
</glyph>
<glyph name="eight.sub" format="2">
  <advance width="350"/>
  <outline>
    <contour>
      <point x="175" y="160" type="curve" smooth="yes"/>
      <point x="147" y="160"/>
      <point x="127" y="177"/>
      <point x="127" y="200" type="curve" smooth="yes"/>
      <point x="127" y="224"/>
      <point x="147" y="241"/>
      <point x="175" y="241" type="curve" smooth="yes"/>
      <point x="203" y="241"/>
      <point x="223" y="224"/>
      <point x="223" y="200" type="curve" smooth="yes"/>
      <point x="223" y="177"/>
      <point x="203" y="160"/>
    </contour>
    <contour>
      <point x="125" y="130" type="curve"/>
      <point x="125" y="139" type="line"/>
      <point x="82" y="130"/>
      <point x="48" y="102"/>
      <point x="48" y="54" type="curve" smooth="yes"/>
      <point x="48" y="-5"/>
      <point x="98" y="-48"/>
      <point x="175" y="-48" type="curve" smooth="yes"/>
      <point x="252" y="-48"/>
      <point x="302" y="-5"/>
      <point x="302" y="54" type="curve" smooth="yes"/>
      <point x="302" y="102"/>
      <point x="268" y="130"/>
      <point x="225" y="139" type="curve"/>
      <point x="225" y="130" type="line"/>
      <point x="261" y="137"/>
      <point x="292" y="161"/>
      <point x="292" y="204" type="curve" smooth="yes"/>
      <point x="292" y="255"/>
      <point x="248" y="295"/>
      <point x="175" y="295" type="curve" smooth="yes"/>
      <point x="102" y="295"/>
      <point x="58" y="255"/>
      <point x="58" y="204" type="curve" smooth="yes"/>
      <point x="58" y="161"/>
      <point x="89" y="137"/>
    </contour>
    <contour>
      <point x="175" y="107" type="curve" smooth="yes"/>
      <point x="208" y="107"/>
      <point x="231" y="88"/>
      <point x="231" y="58" type="curve" smooth="yes"/>
      <point x="231" y="27"/>
      <point x="208" y="6"/>
      <point x="175" y="6" type="curve" smooth="yes"/>
      <point x="142" y="6"/>
      <point x="119" y="27"/>
      <point x="119" y="58" type="curve" smooth="yes"/>
      <point x="119" y="88"/>
      <point x="142" y="107"/>
    </contour>
  </outline>
</glyph>
<glyph name="eight.sup" format="2">
  <advance width="350"/>
  <outline>
    <contour>
      <point x="175" y="670" type="curve" smooth="yes"/>
      <point x="147" y="670"/>
      <point x="127" y="687"/>
      <point x="127" y="710" type="curve" smooth="yes"/>
      <point x="127" y="734"/>
      <point x="147" y="751"/>
      <point x="175" y="751" type="curve" smooth="yes"/>
      <point x="203" y="751"/>
      <point x="223" y="734"/>
      <point x="223" y="710" type="curve" smooth="yes"/>
      <point x="223" y="687"/>
      <point x="203" y="670"/>
    </contour>
    <contour>
      <point x="125" y="640" type="curve"/>
      <point x="125" y="649" type="line"/>
      <point x="82" y="640"/>
      <point x="48" y="612"/>
      <point x="48" y="564" type="curve" smooth="yes"/>
      <point x="48" y="505"/>
      <point x="98" y="462"/>
      <point x="175" y="462" type="curve" smooth="yes"/>
      <point x="252" y="462"/>
      <point x="302" y="505"/>
      <point x="302" y="564" type="curve" smooth="yes"/>
      <point x="302" y="612"/>
      <point x="268" y="640"/>
      <point x="225" y="649" type="curve"/>
      <point x="225" y="640" type="line"/>
      <point x="261" y="647"/>
      <point x="292" y="671"/>
      <point x="292" y="714" type="curve" smooth="yes"/>
      <point x="292" y="765"/>
      <point x="248" y="805"/>
      <point x="175" y="805" type="curve" smooth="yes"/>
      <point x="102" y="805"/>
      <point x="58" y="765"/>
      <point x="58" y="714" type="curve" smooth="yes"/>
      <point x="58" y="671"/>
      <point x="89" y="647"/>
    </contour>
    <contour>
      <point x="175" y="617" type="curve" smooth="yes"/>
      <point x="208" y="617"/>
      <point x="231" y="598"/>
      <point x="231" y="568" type="curve" smooth="yes"/>
      <point x="231" y="537"/>
      <point x="208" y="516"/>
      <point x="175" y="516" type="curve" smooth="yes"/>
      <point x="142" y="516"/>
      <point x="119" y="537"/>
      <point x="119" y="568" type="curve" smooth="yes"/>
      <point x="119" y="598"/>
      <point x="142" y="617"/>
    </contour>
  </outline>
</glyph>
<glyph name="eight.tab" format="2">
  <advance width="600"/>
  <outline>
    <contour>
      <point x="300" y="406" type="curve" smooth="yes"/>
      <point x="206" y="406"/>
      <point x="157" y="457"/>
      <point x="157" y="524" type="curve" smooth="yes"/>
      <point x="157" y="591"/>
      <point x="206" y="643"/>
      <point x="300" y="643" type="curve" smooth="yes"/>
      <point x="394" y="643"/>
      <point x="443" y="591"/>
      <point x="443" y="524" type="curve" smooth="yes"/>
      <point x="443" y="457"/>
      <point x="394" y="406"/>
    </contour>
    <contour>
      <point x="217" y="365" type="curve"/>
      <point x="217" y="383" type="line"/>
      <point x="121" y="366"/>
      <point x="52" y="300"/>
      <point x="52" y="195" type="curve" smooth="yes"/>
      <point x="52" y="75"/>
      <point x="156" y="-12"/>
      <point x="300" y="-12" type="curve" smooth="yes"/>
      <point x="444" y="-12"/>
      <point x="548" y="76"/>
      <point x="548" y="196" type="curve" smooth="yes"/>
      <point x="548" y="301"/>
      <point x="477" y="368"/>
      <point x="383" y="385" type="curve"/>
      <point x="383" y="367" type="line"/>
      <point x="463" y="381"/>
      <point x="531" y="429"/>
      <point x="531" y="524" type="curve" smooth="yes"/>
      <point x="531" y="637"/>
      <point x="436" y="712"/>
      <point x="300" y="712" type="curve" smooth="yes"/>
      <point x="164" y="712"/>
      <point x="69" y="637"/>
      <point x="69" y="524" type="curve" smooth="yes"/>
      <point x="69" y="429"/>
      <point x="136" y="379"/>
    </contour>
    <contour>
      <point x="300" y="340" type="curve" smooth="yes"/>
      <point x="397" y="340"/>
      <point x="460" y="277"/>
      <point x="460" y="200" type="curve" smooth="yes"/>
      <point x="460" y="123"/>
      <point x="397" y="60"/>
      <point x="300" y="60" type="curve" smooth="yes"/>
      <point x="203" y="60"/>
      <point x="140" y="123"/>
      <point x="140" y="200" type="curve" smooth="yes"/>
      <point x="140" y="277"/>
      <point x="203" y="340"/>
    </contour>
  </outline>
</glyph>
<glyph name="endash.uc" format="2">
  <advance width="600"/>
  <outline>
    <contour>
      <point x="69" y="298" type="line"/>
      <point x="531" y="298" type="line"/>
      <point x="531" y="374" type="line"/>
      <point x="69" y="374" type="line"/>
    </contour>
  </outline>
</glyph>
<glyph name="five.den" format="2">
  <advance width="350"/>
  <outline>
    <contour>
      <point x="21" y="108" type="line"/>
      <point x="23" y="36"/>
      <point x="72" y="-5"/>
      <point x="146" y="-5" type="curve" smooth="yes"/>
      <point x="222" y="-5"/>
      <point x="267" y="41"/>
      <point x="267" y="113" type="curve" smooth="yes"/>
      <point x="267" y="177"/>
      <point x="231" y="226"/>
      <point x="166" y="226" type="curve" smooth="yes"/>
      <point x="119" y="226"/>
      <point x="90" y="198"/>
      <point x="79" y="168" type="curve"/>
      <point x="101" y="168" type="line"/>
      <point x="113" y="314" type="line"/>
      <point x="78" y="273" type="line"/>
      <point x="256" y="273" type="line"/>
      <point x="256" y="333" type="line"/>
      <point x="50" y="333" type="line"/>
      <point x="34" y="143" type="line"/>
      <point x="101" y="138" type="line"/>
      <point x="109" y="158"/>
      <point x="125" y="171"/>
      <point x="147" y="171" type="curve" smooth="yes"/>
      <point x="176" y="171"/>
      <point x="194" y="147"/>
      <point x="194" y="113" type="curve" smooth="yes"/>
      <point x="194" y="75"/>
      <point x="174" y="51"/>
      <point x="145" y="51" type="curve" smooth="yes"/>
      <point x="117" y="51"/>
      <point x="99" y="72"/>
      <point x="98" y="99" type="curve"/>
    </contour>
  </outline>
</glyph>
<glyph name="five.sup" format="2">
  <advance width="350"/>
  <outline>
    <contour>
      <point x="56" y="575" type="line"/>
      <point x="58" y="503"/>
      <point x="107" y="462"/>
      <point x="181" y="462" type="curve" smooth="yes"/>
      <point x="257" y="462"/>
      <point x="302" y="508"/>
      <point x="302" y="580" type="curve" smooth="yes"/>
      <point x="302" y="644"/>
      <point x="266" y="693"/>
      <point x="201" y="693" type="curve" smooth="yes"/>
      <point x="154" y="693"/>
      <point x="125" y="665"/>
      <point x="114" y="635" type="curve"/>
      <point x="136" y="635" type="line"/>
      <point x="148" y="781" type="line"/>
      <point x="113" y="740" type="line"/>
      <point x="291" y="740" type="line"/>
      <point x="291" y="800" type="line"/>
      <point x="85" y="800" type="line"/>
      <point x="69" y="610" type="line"/>
      <point x="136" y="605" type="line"/>
      <point x="144" y="625"/>
      <point x="160" y="638"/>
      <point x="182" y="638" type="curve" smooth="yes"/>
      <point x="211" y="638"/>
      <point x="229" y="614"/>
      <point x="229" y="580" type="curve" smooth="yes"/>
      <point x="229" y="542"/>
      <point x="209" y="518"/>
      <point x="180" y="518" type="curve" smooth="yes"/>
      <point x="152" y="518"/>
      <point x="134" y="539"/>
      <point x="133" y="566" type="curve"/>
    </contour>
  </outline>
</glyph>
<glyph name="four.den" format="2">
  <advance width="350"/>
  <outline>
    <contour>
      <point x="227" y="334" type="line"/>
      <point x="151" y="334" type="line"/>
      <point x="3" y="136" type="line"/>
      <point x="3" y="76" type="line"/>
      <point x="283" y="76" type="line"/>
      <point x="283" y="133" type="line"/>
      <point x="31" y="133" type="line"/>
      <point x="51" y="106" type="line"/>
      <point x="207" y="315" type="line"/>
      <point x="158" y="315" type="line"/>
      <point x="158" y="1" type="line"/>
      <point x="227" y="1" type="line"/>
    </contour>
  </outline>
</glyph>
<glyph name="four.sub" format="2">
  <advance width="350"/>
  <outline>
    <contour>
      <point x="262" y="291" type="line"/>
      <point x="186" y="291" type="line"/>
      <point x="38" y="93" type="line"/>
      <point x="38" y="33" type="line"/>
      <point x="318" y="33" type="line"/>
      <point x="318" y="90" type="line"/>
      <point x="66" y="90" type="line"/>
      <point x="86" y="63" type="line"/>
      <point x="242" y="272" type="line"/>
      <point x="193" y="272" type="line"/>
      <point x="193" y="-42" type="line"/>
      <point x="262" y="-42" type="line"/>
    </contour>
  </outline>
</glyph>
<glyph name="guillemetright.uc" format="2">
  <advance width="600"/>
  <outline>
    <contour>
      <point x="287" y="530" type="line"/>
      <point x="383" y="530" type="line"/>
      <point x="523" y="356" type="line"/>
      <point x="523" y="314" type="line"/>
      <point x="383" y="140" type="line"/>
      <point x="287" y="140" type="line"/>
      <point x="464" y="360" type="line"/>
      <point x="464" y="310" type="line"/>
    </contour>
    <contour>
      <point x="76" y="530" type="line"/>
      <point x="172" y="530" type="line"/>
      <point x="312" y="356" type="line"/>
      <point x="312" y="314" type="line"/>
      <point x="172" y="140" type="line"/>
      <point x="76" y="140" type="line"/>
      <point x="253" y="360" type="line"/>
      <point x="253" y="310" type="line"/>
    </contour>
  </outline>
</glyph>
<glyph name="guilsinglright.uc" format="2">
  <advance width="350"/>
  <outline>
    <contour>
      <point x="57" y="530" type="line"/>
      <point x="153" y="530" type="line"/>
      <point x="293" y="356" type="line"/>
      <point x="293" y="314" type="line"/>
      <point x="153" y="140" type="line"/>
      <point x="57" y="140" type="line"/>
      <point x="234" y="360" type="line"/>
      <point x="234" y="310" type="line"/>
    </contour>
  </outline>
</glyph>
<glyph name="hookabovecmb.uc" format="2">
  <advance width="600"/>
  <outline>
    <contour>
      <point x="310" y="843" type="curve" smooth="yes"/>
      <point x="310" y="819"/>
      <point x="290" y="804"/>
      <point x="251" y="793" type="curve"/>
      <point x="287" y="753" type="line"/>
      <point x="330" y="763"/>
      <point x="371" y="794"/>
      <point x="371" y="848" type="curve" smooth="yes"/>
      <point x="371" y="895"/>
      <point x="336" y="936"/>
      <point x="279" y="936" type="curve" smooth="yes"/>
      <point x="238" y="936"/>
      <point x="203" y="912"/>
      <point x="184" y="879" type="curve"/>
      <point x="226" y="849" type="line"/>
      <point x="235" y="862"/>
      <point x="248" y="881"/>
      <point x="274" y="881" type="curve" smooth="yes"/>
      <point x="297" y="881"/>
      <point x="310" y="865"/>
    </contour>
  </outline>
</glyph>
<glyph name="indianrupee.tab" format="2">
  <advance width="600"/>
  <outline>
    <contour>
      <point x="228" y="381" type="curve" smooth="yes"/>
      <point x="60" y="381" type="line"/>
      <point x="60" y="304" type="line"/>
      <point x="228" y="304" type="line" smooth="yes"/>
      <point x="363" y="304"/>
      <point x="447" y="383"/>
      <point x="447" y="498" type="curve" smooth="yes"/>
      <point x="447" y="551"/>
      <point x="430" y="602"/>
      <point x="368" y="640" type="curve"/>
      <point x="368" y="623" type="line"/>
      <point x="557" y="623" type="line"/>
      <point x="557" y="700" type="line"/>
      <point x="65" y="700" type="line"/>
      <point x="65" y="622" type="line"/>
      <point x="228" y="622" type="line" smooth="yes"/>
      <point x="306" y="622"/>
      <point x="358" y="587"/>
      <point x="358" y="501" type="curve" smooth="yes"/>
      <point x="358" y="417"/>
      <point x="306" y="381"/>
    </contour>
    <contour>
      <point x="138" y="336" type="line"/>
      <point x="195" y="242"/>
      <point x="299" y="79"/>
      <point x="369" y="0" type="curve"/>
      <point x="472" y="0" type="line"/>
      <point x="468" y="7" type="line"/>
      <point x="400" y="82"/>
      <point x="294" y="243"/>
      <point x="236" y="336" type="curve"/>
    </contour>
    <contour>
      <point x="65" y="463" type="line"/>
      <point x="557" y="463" type="line"/>
      <point x="557" y="540" type="line"/>
      <point x="65" y="540" type="line"/>
    </contour>
  </outline>
</glyph>
<glyph name="minus.sub" format="2">
  <advance width="350"/>
  <outline>
    <contour>
      <point x="48" y="96" type="line"/>
      <point x="302" y="96" type="line"/>
      <point x="302" y="152" type="line"/>
      <point x="48" y="152" type="line"/>
    </contour>
  </outline>
</glyph>
<glyph name="minus.tab" format="2">
  <advance width="600"/>
  <outline>
    <contour>
      <point x="528" y="302" type="line"/>
      <point x="528" y="378" type="line"/>
      <point x="72" y="378" type="line"/>
      <point x="72" y="302" type="line"/>
    </contour>
  </outline>
</glyph>
<glyph name="nine.den" format="2">
  <advance width="350"/>
  <outline>
    <contour>
      <point x="140" y="338" type="curve" smooth="yes"/>
      <point x="60" y="338"/>
      <point x="18" y="286"/>
      <point x="18" y="221" type="curve" smooth="yes"/>
      <point x="18" y="153"/>
      <point x="65" y="112"/>
      <point x="123" y="112" type="curve" smooth="yes"/>
      <point x="171" y="112"/>
      <point x="206" y="139"/>
      <point x="214" y="189" type="curve"/>
      <point x="194" y="189" type="line"/>
      <point x="194" y="158" type="line" smooth="yes"/>
      <point x="194" y="98"/>
      <point x="180" y="50"/>
      <point x="138" y="50" type="curve" smooth="yes"/>
      <point x="114" y="50"/>
      <point x="99" y="64"/>
      <point x="96" y="90" type="curve"/>
      <point x="19" y="101" type="line"/>
      <point x="22" y="36"/>
      <point x="65" y="-5"/>
      <point x="136" y="-5" type="curve" smooth="yes"/>
      <point x="226" y="-5"/>
      <point x="266" y="56"/>
      <point x="266" y="173" type="curve" smooth="yes"/>
      <point x="266" y="228"/>
      <point x="259" y="260"/>
      <point x="241" y="289" type="curve" smooth="yes"/>
      <point x="220" y="320"/>
      <point x="184" y="338"/>
    </contour>
    <contour>
      <point x="140" y="166" type="curve" smooth="yes"/>
      <point x="112" y="166"/>
      <point x="90" y="187"/>
      <point x="90" y="224" type="curve" smooth="yes"/>
      <point x="90" y="261"/>
      <point x="112" y="282"/>
      <point x="140" y="282" type="curve" smooth="yes"/>
      <point x="168" y="282"/>
      <point x="190" y="261"/>
      <point x="190" y="224" type="curve" smooth="yes"/>
      <point x="190" y="187"/>
      <point x="168" y="166"/>
    </contour>
  </outline>
</glyph>
<glyph name="nine.sub" format="2">
  <advance width="350"/>
  <outline>
    <contour>
      <point x="177" y="295" type="curve" smooth="yes"/>
      <point x="97" y="295"/>
      <point x="55" y="243"/>
      <point x="55" y="178" type="curve" smooth="yes"/>
      <point x="55" y="110"/>
      <point x="102" y="69"/>
      <point x="160" y="69" type="curve" smooth="yes"/>
      <point x="208" y="69"/>
      <point x="243" y="96"/>
      <point x="251" y="146" type="curve"/>
      <point x="231" y="146" type="line"/>
      <point x="231" y="115" type="line" smooth="yes"/>
      <point x="231" y="55"/>
      <point x="217" y="7"/>
      <point x="175" y="7" type="curve" smooth="yes"/>
      <point x="151" y="7"/>
      <point x="136" y="21"/>
      <point x="133" y="47" type="curve"/>
      <point x="56" y="58" type="line"/>
      <point x="59" y="-7"/>
      <point x="102" y="-48"/>
      <point x="173" y="-48" type="curve" smooth="yes"/>
      <point x="263" y="-48"/>
      <point x="303" y="13"/>
      <point x="303" y="130" type="curve" smooth="yes"/>
      <point x="303" y="185"/>
      <point x="296" y="217"/>
      <point x="278" y="246" type="curve" smooth="yes"/>
      <point x="257" y="277"/>
      <point x="221" y="295"/>
    </contour>
    <contour>
      <point x="177" y="123" type="curve" smooth="yes"/>
      <point x="149" y="123"/>
      <point x="127" y="144"/>
      <point x="127" y="181" type="curve" smooth="yes"/>
      <point x="127" y="218"/>
      <point x="149" y="239"/>
      <point x="177" y="239" type="curve" smooth="yes"/>
      <point x="205" y="239"/>
      <point x="227" y="218"/>
      <point x="227" y="181" type="curve" smooth="yes"/>
      <point x="227" y="144"/>
      <point x="205" y="123"/>
    </contour>
  </outline>
</glyph>
<glyph name="nine.sup" format="2">
  <advance width="350"/>
  <outline>
    <contour>
      <point x="177" y="805" type="curve" smooth="yes"/>
      <point x="97" y="805"/>
      <point x="55" y="753"/>
      <point x="55" y="688" type="curve" smooth="yes"/>
      <point x="55" y="620"/>
      <point x="102" y="579"/>
      <point x="160" y="579" type="curve" smooth="yes"/>
      <point x="208" y="579"/>
      <point x="243" y="606"/>
      <point x="251" y="656" type="curve"/>
      <point x="231" y="656" type="line"/>
      <point x="231" y="625" type="line" smooth="yes"/>
      <point x="231" y="565"/>
      <point x="217" y="517"/>
      <point x="175" y="517" type="curve" smooth="yes"/>
      <point x="151" y="517"/>
      <point x="136" y="531"/>
      <point x="133" y="557" type="curve"/>
      <point x="56" y="568" type="line"/>
      <point x="59" y="503"/>
      <point x="102" y="462"/>
      <point x="173" y="462" type="curve" smooth="yes"/>
      <point x="263" y="462"/>
      <point x="303" y="523"/>
      <point x="303" y="640" type="curve" smooth="yes"/>
      <point x="303" y="695"/>
      <point x="296" y="727"/>
      <point x="278" y="756" type="curve" smooth="yes"/>
      <point x="257" y="787"/>
      <point x="221" y="805"/>
    </contour>
    <contour>
      <point x="177" y="633" type="curve" smooth="yes"/>
      <point x="149" y="633"/>
      <point x="127" y="654"/>
      <point x="127" y="691" type="curve" smooth="yes"/>
      <point x="127" y="728"/>
      <point x="149" y="749"/>
      <point x="177" y="749" type="curve" smooth="yes"/>
      <point x="205" y="749"/>
      <point x="227" y="728"/>
      <point x="227" y="691" type="curve" smooth="yes"/>
      <point x="227" y="654"/>
      <point x="205" y="633"/>
    </contour>
  </outline>
</glyph>
<glyph name="one.den" format="2">
  <advance width="350"/>
  <outline>
    <contour>
      <point x="107" y="333" type="line"/>
      <point x="107" y="275"/>
      <point x="91" y="257"/>
      <point x="16" y="257" type="curve"/>
      <point x="16" y="204" type="line"/>
      <point x="142" y="204" type="line"/>
      <point x="100" y="249" type="line"/>
      <point x="100" y="0" type="line"/>
      <point x="172" y="0" type="line"/>
      <point x="172" y="333" type="line"/>
    </contour>
  </outline>
</glyph>
<glyph name="one.num" format="2">
  <advance width="350"/>
  <outline>
    <contour>
      <point x="107" y="700" type="line"/>
      <point x="107" y="642"/>
      <point x="91" y="624"/>
      <point x="16" y="624" type="curve"/>
      <point x="16" y="571" type="line"/>
      <point x="142" y="571" type="line"/>
      <point x="100" y="616" type="line"/>
      <point x="100" y="367" type="line"/>
      <point x="172" y="367" type="line"/>
      <point x="172" y="700" type="line"/>
    </contour>
  </outline>
</glyph>
<glyph name="one.sub" format="2">
  <advance width="350"/>
  <outline>
    <contour>
      <point x="142" y="290" type="line"/>
      <point x="142" y="232"/>
      <point x="126" y="214"/>
      <point x="51" y="214" type="curve"/>
      <point x="51" y="161" type="line"/>
      <point x="177" y="161" type="line"/>
      <point x="135" y="206" type="line"/>
      <point x="135" y="-43" type="line"/>
      <point x="207" y="-43" type="line"/>
      <point x="207" y="290" type="line"/>
    </contour>
  </outline>
</glyph>
<glyph name="parenright.uc" format="2">
  <advance width="600"/>
  <outline>
    <contour>
      <point x="347" y="332" type="curve" smooth="yes"/>
      <point x="348" y="483"/>
      <point x="270" y="625"/>
      <point x="114" y="746" type="curve"/>
      <point x="218" y="746" type="line"/>
      <point x="364" y="635"/>
      <point x="442" y="483"/>
      <point x="442" y="332" type="curve" smooth="yes"/>
      <point x="442" y="181"/>
      <point x="364" y="29"/>
      <point x="218" y="-82" type="curve"/>
      <point x="114" y="-82" type="line"/>
      <point x="270" y="39"/>
      <point x="348" y="181"/>
    </contour>
  </outline>
</glyph>
<glyph name="plus.tab" format="2">
  <advance width="600"/>
  <outline>
    <contour>
      <point x="528" y="302" type="line"/>
      <point x="528" y="378" type="line"/>
      <point x="72" y="378" type="line"/>
      <point x="72" y="302" type="line"/>
    </contour>
    <contour>
      <point x="339" y="578" type="line"/>
      <point x="261" y="578" type="line"/>
      <point x="261" y="102" type="line"/>
      <point x="339" y="102" type="line"/>
    </contour>
  </outline>
</glyph>
<glyph name="seven.den" format="2">
  <advance width="350"/>
  <outline>
    <contour>
      <point x="31" y="333" type="line"/>
      <point x="31" y="207" type="line"/>
      <point x="99" y="207" type="line"/>
      <point x="99" y="303" type="line"/>
      <point x="74" y="273" type="line"/>
      <point x="246" y="273" type="line"/>
      <point x="225" y="311" type="line"/>
      <point x="161" y="214"/>
      <point x="96" y="113"/>
      <point x="91" y="0" type="curve"/>
      <point x="168" y="0" type="line"/>
      <point x="175" y="111"/>
      <point x="227" y="202"/>
      <point x="281" y="294" type="curve"/>
      <point x="281" y="333" type="line"/>
    </contour>
  </outline>
</glyph>
<glyph name="seven.num" format="2">
  <advance width="350"/>
  <outline>
    <contour>
      <point x="31" y="700" type="line"/>
      <point x="31" y="574" type="line"/>
      <point x="99" y="574" type="line"/>
      <point x="99" y="670" type="line"/>
      <point x="74" y="640" type="line"/>
      <point x="246" y="640" type="line"/>
      <point x="225" y="678" type="line"/>
      <point x="161" y="581"/>
      <point x="96" y="480"/>
      <point x="91" y="367" type="curve"/>
      <point x="168" y="367" type="line"/>
      <point x="175" y="478"/>
      <point x="227" y="569"/>
      <point x="281" y="661" type="curve"/>
      <point x="281" y="700" type="line"/>
    </contour>
  </outline>
</glyph>
<glyph name="seven.sub" format="2">
  <advance width="350"/>
  <outline>
    <contour>
      <point x="66" y="290" type="line"/>
      <point x="66" y="164" type="line"/>
      <point x="134" y="164" type="line"/>
      <point x="134" y="260" type="line"/>
      <point x="109" y="230" type="line"/>
      <point x="281" y="230" type="line"/>
      <point x="260" y="268" type="line"/>
      <point x="196" y="171"/>
      <point x="131" y="70"/>
      <point x="126" y="-43" type="curve"/>
      <point x="203" y="-43" type="line"/>
      <point x="210" y="68"/>
      <point x="262" y="159"/>
      <point x="316" y="251" type="curve"/>
      <point x="316" y="290" type="line"/>
    </contour>
  </outline>
</glyph>
<glyph name="seven.sup" format="2">
  <advance width="350"/>
  <outline>
    <contour>
      <point x="66" y="800" type="line"/>
      <point x="66" y="674" type="line"/>
      <point x="134" y="674" type="line"/>
      <point x="134" y="770" type="line"/>
      <point x="109" y="740" type="line"/>
      <point x="281" y="740" type="line"/>
      <point x="260" y="778" type="line"/>
      <point x="196" y="681"/>
      <point x="131" y="580"/>
      <point x="126" y="467" type="curve"/>
      <point x="203" y="467" type="line"/>
      <point x="210" y="578"/>
      <point x="262" y="669"/>
      <point x="316" y="761" type="curve"/>
      <point x="316" y="800" type="line"/>
    </contour>
  </outline>
</glyph>
<glyph name="six.den" format="2">
  <advance width="350"/>
  <outline>
    <contour>
      <point x="136" y="-5" type="curve" smooth="yes"/>
      <point x="216" y="-5"/>
      <point x="258" y="49"/>
      <point x="258" y="111" type="curve" smooth="yes"/>
      <point x="258" y="179"/>
      <point x="214" y="222"/>
      <point x="156" y="222" type="curve" smooth="yes"/>
      <point x="108" y="222"/>
      <point x="72" y="193"/>
      <point x="62" y="145" type="curve"/>
      <point x="83" y="145" type="line"/>
      <point x="83" y="174" type="line" smooth="yes"/>
      <point x="83" y="243"/>
      <point x="114" y="279"/>
      <point x="147" y="279" type="curve" smooth="yes"/>
      <point x="168" y="279"/>
      <point x="182" y="266"/>
      <point x="182" y="245" type="curve"/>
      <point x="253" y="237" type="line"/>
      <point x="251" y="296"/>
      <point x="215" y="338"/>
      <point x="148" y="338" type="curve" smooth="yes"/>
      <point x="65" y="338"/>
      <point x="10" y="267"/>
      <point x="10" y="157" type="curve" smooth="yes"/>
      <point x="10" y="106"/>
      <point x="18" y="71"/>
      <point x="36" y="44" type="curve" smooth="yes"/>
      <point x="58" y="12"/>
      <point x="91" y="-5"/>
    </contour>
    <contour>
      <point x="136" y="50" type="curve" smooth="yes"/>
      <point x="105" y="50"/>
      <point x="86" y="76"/>
      <point x="86" y="109" type="curve" smooth="yes"/>
      <point x="86" y="142"/>
      <point x="105" y="168"/>
      <point x="136" y="168" type="curve" smooth="yes"/>
      <point x="168" y="168"/>
      <point x="186" y="142"/>
      <point x="186" y="109" type="curve" smooth="yes"/>
      <point x="186" y="76"/>
      <point x="168" y="50"/>
    </contour>
  </outline>
</glyph>
<glyph name="six.num" format="2">
  <advance width="350"/>
  <outline>
    <contour>
      <point x="136" y="362" type="curve" smooth="yes"/>
      <point x="216" y="362"/>
      <point x="258" y="416"/>
      <point x="258" y="478" type="curve" smooth="yes"/>
      <point x="258" y="546"/>
      <point x="214" y="589"/>
      <point x="156" y="589" type="curve" smooth="yes"/>
      <point x="108" y="589"/>
      <point x="72" y="560"/>
      <point x="62" y="512" type="curve"/>
      <point x="83" y="512" type="line"/>
      <point x="83" y="541" type="line" smooth="yes"/>
      <point x="83" y="610"/>
      <point x="114" y="646"/>
      <point x="147" y="646" type="curve" smooth="yes"/>
      <point x="168" y="646"/>
      <point x="182" y="633"/>
      <point x="182" y="612" type="curve"/>
      <point x="253" y="604" type="line"/>
      <point x="251" y="663"/>
      <point x="215" y="705"/>
      <point x="148" y="705" type="curve" smooth="yes"/>
      <point x="65" y="705"/>
      <point x="10" y="634"/>
      <point x="10" y="524" type="curve" smooth="yes"/>
      <point x="10" y="473"/>
      <point x="18" y="438"/>
      <point x="36" y="411" type="curve" smooth="yes"/>
      <point x="58" y="379"/>
      <point x="91" y="362"/>
    </contour>
    <contour>
      <point x="136" y="417" type="curve" smooth="yes"/>
      <point x="105" y="417"/>
      <point x="86" y="443"/>
      <point x="86" y="476" type="curve" smooth="yes"/>
      <point x="86" y="509"/>
      <point x="105" y="535"/>
      <point x="136" y="535" type="curve" smooth="yes"/>
      <point x="168" y="535"/>
      <point x="186" y="509"/>
      <point x="186" y="476" type="curve" smooth="yes"/>
      <point x="186" y="443"/>
      <point x="168" y="417"/>
    </contour>
  </outline>
</glyph>
<glyph name="three.den" format="2">
  <advance width="350"/>
  <outline>
    <contour>
      <point x="11" y="110" type="line"/>
      <point x="6" y="34"/>
      <point x="63" y="-4"/>
      <point x="137" y="-4" type="curve" smooth="yes"/>
      <point x="214" y="-4"/>
      <point x="262" y="38"/>
      <point x="262" y="98" type="curve" smooth="yes"/>
      <point x="262" y="142"/>
      <point x="236" y="169"/>
      <point x="194" y="177" type="curve"/>
      <point x="194" y="173" type="line"/>
      <point x="223" y="180"/>
      <point x="254" y="199"/>
      <point x="254" y="244" type="curve" smooth="yes"/>
      <point x="254" y="294"/>
      <point x="214" y="339"/>
      <point x="137" y="339" type="curve" smooth="yes"/>
      <point x="65" y="339"/>
      <point x="9" y="298"/>
      <point x="15" y="227" type="curve"/>
      <point x="87" y="231" type="line"/>
      <point x="84" y="261"/>
      <point x="105" y="282"/>
      <point x="136" y="282" type="curve" smooth="yes"/>
      <point x="166" y="282"/>
      <point x="182" y="261"/>
      <point x="182" y="240" type="curve" smooth="yes"/>
      <point x="182" y="216"/>
      <point x="163" y="200"/>
      <point x="136" y="200" type="curve" smooth="yes"/>
      <point x="110" y="200" type="line"/>
      <point x="110" y="145" type="line"/>
      <point x="136" y="145" type="line" smooth="yes"/>
      <point x="172" y="145"/>
      <point x="190" y="127"/>
      <point x="190" y="101" type="curve" smooth="yes"/>
      <point x="190" y="72"/>
      <point x="170" y="53"/>
      <point x="137" y="53" type="curve" smooth="yes"/>
      <point x="100" y="53"/>
      <point x="80" y="77"/>
      <point x="84" y="105" type="curve"/>
    </contour>
  </outline>
</glyph>
<glyph name="three.sup" format="2">
  <advance width="350"/>
  <outline>
    <contour>
      <point x="47" y="577" type="line"/>
      <point x="42" y="501"/>
      <point x="99" y="463"/>
      <point x="173" y="463" type="curve" smooth="yes"/>
      <point x="250" y="463"/>
      <point x="298" y="505"/>
      <point x="298" y="565" type="curve" smooth="yes"/>
      <point x="298" y="609"/>
      <point x="272" y="636"/>
      <point x="230" y="644" type="curve"/>
      <point x="230" y="640" type="line"/>
      <point x="259" y="647"/>
      <point x="290" y="666"/>
      <point x="290" y="711" type="curve" smooth="yes"/>
      <point x="290" y="761"/>
      <point x="250" y="806"/>
      <point x="173" y="806" type="curve" smooth="yes"/>
      <point x="101" y="806"/>
      <point x="45" y="765"/>
      <point x="51" y="694" type="curve"/>
      <point x="123" y="698" type="line"/>
      <point x="120" y="728"/>
      <point x="141" y="749"/>
      <point x="172" y="749" type="curve" smooth="yes"/>
      <point x="202" y="749"/>
      <point x="218" y="728"/>
      <point x="218" y="707" type="curve" smooth="yes"/>
      <point x="218" y="683"/>
      <point x="199" y="667"/>
      <point x="172" y="667" type="curve" smooth="yes"/>
      <point x="146" y="667" type="line"/>
      <point x="146" y="612" type="line"/>
      <point x="172" y="612" type="line" smooth="yes"/>
      <point x="208" y="612"/>
      <point x="226" y="594"/>
      <point x="226" y="568" type="curve" smooth="yes"/>
      <point x="226" y="539"/>
      <point x="206" y="520"/>
      <point x="173" y="520" type="curve" smooth="yes"/>
      <point x="136" y="520"/>
      <point x="116" y="544"/>
      <point x="120" y="572" type="curve"/>
    </contour>
  </outline>
</glyph>
<glyph name="three.tab" format="2">
  <advance width="600"/>
  <outline>
    <contour>
      <point x="68" y="211" type="line"/>
      <point x="55" y="60"/>
      <point x="158" y="-12"/>
      <point x="303" y="-12" type="curve" smooth="yes"/>
      <point x="440" y="-12"/>
      <point x="546" y="68"/>
      <point x="546" y="195" type="curve" smooth="yes"/>
      <point x="546" y="287"/>
      <point x="490" y="351"/>
      <point x="406" y="368" type="curve"/>
      <point x="406" y="362" type="line"/>
      <point x="464" y="378"/>
      <point x="528" y="425"/>
      <point x="528" y="517" type="curve" smooth="yes"/>
      <point x="528" y="624"/>
      <point x="439" y="712"/>
      <point x="306" y="712" type="curve" smooth="yes"/>
      <point x="165" y="712"/>
      <point x="61" y="631"/>
      <point x="75" y="493" type="curve"/>
      <point x="163" y="502" type="line"/>
      <point x="156" y="575"/>
      <point x="212" y="636"/>
      <point x="304" y="636" type="curve" smooth="yes"/>
      <point x="381" y="636"/>
      <point x="437" y="590"/>
      <point x="437" y="511" type="curve" smooth="yes"/>
      <point x="437" y="438"/>
      <point x="390" y="401"/>
      <point x="319" y="401" type="curve" smooth="yes"/>
      <point x="268" y="401" type="line"/>
      <point x="268" y="322" type="line"/>
      <point x="320" y="322" type="line" smooth="yes"/>
      <point x="408" y="322"/>
      <point x="455" y="268"/>
      <point x="455" y="196" type="curve" smooth="yes"/>
      <point x="455" y="116"/>
      <point x="399" y="64"/>
      <point x="305" y="64" type="curve" smooth="yes"/>
      <point x="204" y="64"/>
      <point x="148" y="121"/>
      <point x="156" y="202" type="curve"/>
    </contour>
  </outline>
</glyph>
<glyph name="tildecmb.uc" format="2">
  <advance width="600"/>
  <outline>
    <contour>
      <point x="243" y="878" type="curve" smooth="yes"/>
      <point x="193" y="878"/>
      <point x="167" y="836"/>
      <point x="164" y="771" type="curve"/>
      <point x="221" y="771" type="line"/>
      <point x="224" y="799"/>
      <point x="231" y="812"/>
      <point x="249" y="812" type="curve" smooth="yes"/>
      <point x="275" y="812"/>
      <point x="316" y="778"/>
      <point x="357" y="778" type="curve" smooth="yes"/>
      <point x="407" y="778"/>
      <point x="433" y="820"/>
      <point x="436" y="885" type="curve"/>
      <point x="378" y="885" type="line"/>
      <point x="376" y="857"/>
      <point x="369" y="844"/>
      <point x="351" y="844" type="curve" smooth="yes"/>
      <point x="325" y="844"/>
      <point x="284" y="878"/>
    </contour>
  </outline>
</glyph>
<glyph name="two.den" format="2">
  <advance width="350"/>
  <outline>
    <contour>
      <point x="257" y="1" type="line"/>
      <point x="257" y="62" type="line"/>
      <point x="63" y="62" type="line"/>
      <point x="68" y="24" type="line"/>
      <point x="182" y="112"/>
      <point x="255" y="160"/>
      <point x="255" y="231" type="curve" smooth="yes"/>
      <point x="255" y="282"/>
      <point x="223" y="339"/>
      <point x="136" y="339" type="curve" smooth="yes"/>
      <point x="54" y="339"/>
      <point x="16" y="287"/>
      <point x="16" y="237" type="curve" smooth="yes"/>
      <point x="16" y="221"/>
      <point x="20" y="207"/>
      <point x="28" y="194" type="curve"/>
      <point x="96" y="202" type="line"/>
      <point x="89" y="213"/>
      <point x="87" y="223"/>
      <point x="87" y="232" type="curve" smooth="yes"/>
      <point x="87" y="258"/>
      <point x="105" y="279"/>
      <point x="134" y="279" type="curve" smooth="yes"/>
      <point x="163" y="279"/>
      <point x="182" y="260"/>
      <point x="182" y="230" type="curve" smooth="yes"/>
      <point x="182" y="185"/>
      <point x="136" y="156"/>
      <point x="19" y="60" type="curve"/>
      <point x="19" y="1" type="line"/>
    </contour>
  </outline>
</glyph>
<glyph name="two.sup" format="2">
  <advance width="350"/>
  <outline>
    <contour>
      <point x="291" y="468" type="line"/>
      <point x="291" y="529" type="line"/>
      <point x="97" y="529" type="line"/>
      <point x="102" y="491" type="line"/>
      <point x="216" y="579"/>
      <point x="289" y="627"/>
      <point x="289" y="698" type="curve" smooth="yes"/>
      <point x="289" y="749"/>
      <point x="257" y="806"/>
      <point x="170" y="806" type="curve" smooth="yes"/>
      <point x="88" y="806"/>
      <point x="50" y="754"/>
      <point x="50" y="704" type="curve" smooth="yes"/>
      <point x="50" y="688"/>
      <point x="54" y="674"/>
      <point x="62" y="661" type="curve"/>
      <point x="130" y="669" type="line"/>
      <point x="123" y="680"/>
      <point x="121" y="690"/>
      <point x="121" y="699" type="curve" smooth="yes"/>
      <point x="121" y="725"/>
      <point x="139" y="746"/>
      <point x="168" y="746" type="curve" smooth="yes"/>
      <point x="197" y="746"/>
      <point x="216" y="727"/>
      <point x="216" y="697" type="curve" smooth="yes"/>
      <point x="216" y="652"/>
      <point x="170" y="623"/>
      <point x="53" y="527" type="curve"/>
      <point x="53" y="468" type="line"/>
    </contour>
  </outline>
</glyph>
<glyph name="zero.den" format="2">
  <advance width="350"/>
  <outline>
    <contour>
      <point x="140" y="338" type="curve" smooth="yes"/>
      <point x="60" y="338"/>
      <point x="11" y="272"/>
      <point x="11" y="166" type="curve" smooth="yes"/>
      <point x="11" y="61"/>
      <point x="60" y="-5"/>
      <point x="140" y="-5" type="curve" smooth="yes"/>
      <point x="219" y="-5"/>
      <point x="269" y="61"/>
      <point x="269" y="166" type="curve" smooth="yes"/>
      <point x="269" y="272"/>
      <point x="219" y="338"/>
    </contour>
    <contour>
      <point x="140" y="56" type="curve" smooth="yes"/>
      <point x="102" y="56"/>
      <point x="84" y="97"/>
      <point x="84" y="166" type="curve" smooth="yes"/>
      <point x="84" y="236"/>
      <point x="102" y="277"/>
      <point x="140" y="277" type="curve" smooth="yes"/>
      <point x="177" y="277"/>
      <point x="196" y="236"/>
      <point x="196" y="166" type="curve" smooth="yes"/>
      <point x="196" y="97"/>
      <point x="177" y="56"/>
    </contour>
  </outline>
</glyph>
<glyph name="zero.tab" format="2">
  <advance width="600"/>
  <outline>
    <contour>
      <point x="300" y="712" type="curve" smooth="yes"/>
      <point x="147" y="712"/>
      <point x="42" y="572"/>
      <point x="42" y="350" type="curve" smooth="yes"/>
      <point x="42" y="128"/>
      <point x="147" y="-12"/>
      <point x="300" y="-12" type="curve" smooth="yes"/>
      <point x="453" y="-12"/>
      <point x="558" y="128"/>
      <point x="558" y="350" type="curve" smooth="yes"/>
      <point x="558" y="572"/>
      <point x="453" y="712"/>
    </contour>
    <contour>
      <point x="300" y="64" type="curve" smooth="yes"/>
      <point x="195" y="64"/>
      <point x="133" y="172"/>
      <point x="133" y="350" type="curve" smooth="yes"/>
      <point x="133" y="528"/>
      <point x="195" y="636"/>
      <point x="300" y="636" type="curve" smooth="yes"/>
      <point x="405" y="636"/>
      <point x="467" y="528"/>
      <point x="467" y="350" type="curve" smooth="yes"/>
      <point x="467" y="172"/>
      <point x="405" y="64"/>
    </contour>
  </outline>
</glyph>
